<svg width="38" height="38" xmlns="http://www.w3.org/2000/svg" xmlns:xlink="http://www.w3.org/1999/xlink" xml:space="preserve" overflow="hidden"><g transform="translate(-991 -649)"><path d="M1021.08 655.333 998.917 655.333C996.293 655.333 994.167 657.46 994.167 660.083L994.167 675.917C994.167 678.54 996.293 680.667 998.917 680.667L1021.08 680.667C1023.71 680.667 1025.83 678.54 1025.83 675.917L1025.83 660.083C1025.83 657.46 1023.71 655.333 1021.08 655.333ZM1020.02 658.5 1010 666.021 999.977 658.5ZM1021.08 677.5 998.917 677.5C998.042 677.5 997.333 676.791 997.333 675.917L997.333 660.479 1009.05 669.267C1009.32 669.472 1009.66 669.583 1010 669.583 1010.34 669.583 1010.68 669.472 1010.95 669.267L1022.67 660.479 1022.67 675.917C1022.67 676.791 1021.96 677.5 1021.08 677.5Z" fill="#0F4C61"/></g></svg>