<svg width="33" height="33" xmlns="http://www.w3.org/2000/svg" xmlns:xlink="http://www.w3.org/1999/xlink" xml:space="preserve" overflow="hidden"><g transform="translate(-945 -653)"><path d="M978 669.076C978 677.953 970.747 685.15 961.799 685.15 958.959 685.15 956.291 684.424 953.969 683.152L945 686 947.924 677.373C946.449 674.952 945.6 672.109 945.6 669.074 945.602 660.197 952.852 653 961.801 653 970.748 653.002 978 660.198 978 669.076ZM961.798 655.563C954.288 655.563 948.179 661.626 948.179 669.079 948.179 672.036 949.143 674.773 950.773 677.001L949.073 682.018 954.305 680.356C956.457 681.768 959.032 682.59 961.798 682.59 969.307 682.59 975.419 676.528 975.419 669.076 975.421 661.626 969.309 655.563 961.798 655.563ZM969.98 672.778C969.879 672.616 969.614 672.517 969.218 672.319 968.823 672.121 966.868 671.168 966.505 671.039 966.14 670.907 965.875 670.84 965.61 671.235 965.349 671.63 964.587 672.517 964.353 672.781 964.122 673.045 963.891 673.078 963.493 672.884 963.096 672.684 961.816 672.27 960.299 670.928 959.118 669.883 958.321 668.594 958.09 668.2 957.857 667.806 958.067 667.593 958.264 667.397 958.441 667.219 958.661 666.936 958.86 666.705 959.059 666.476 959.125 666.313 959.257 666.05 959.387 665.786 959.321 665.557 959.224 665.358 959.125 665.16 958.331 663.223 957.999 662.434 957.669 661.646 957.338 661.776 957.106 661.776 956.875 661.776 956.61 661.744 956.345 661.744 956.08 661.744 955.65 661.84 955.287 662.235 954.925 662.63 953.898 663.582 953.898 665.521 953.898 667.462 955.32 669.334 955.519 669.596 955.719 669.858 958.267 673.967 962.303 675.545 966.342 677.121 966.342 676.595 967.069 676.528 967.799 676.462 969.419 675.576 969.749 674.657 970.08 673.734 970.08 672.943 969.98 672.778Z" fill="#0F4C61"/></g></svg>