<svg width="43" height="43" xmlns="http://www.w3.org/2000/svg" xmlns:xlink="http://www.w3.org/1999/xlink" xml:space="preserve" overflow="hidden"><g transform="translate(-886 -647)"><path d="M927.828 658.252C927.339 656.424 925.9 654.984 924.072 654.496 920.76 653.608 907.476 653.608 907.476 653.608 907.476 653.608 894.192 653.608 890.88 654.496 889.052 654.984 887.613 656.424 887.124 658.252 886.236 661.564 886.236 668.476 886.236 668.476 886.236 668.476 886.236 675.388 887.124 678.7 887.613 680.528 889.052 681.967 890.88 682.456 894.192 683.344 907.476 683.344 907.476 683.344 907.476 683.344 920.76 683.344 924.072 682.456 925.9 681.967 927.339 680.528 927.828 678.7 928.716 675.388 928.716 668.476 928.716 668.476 928.716 668.476 928.716 661.564 927.828 658.252ZM903.228 674.848 903.228 662.104 914.264 668.476 903.228 674.848Z" fill="#0F4C61"/></g></svg>