<svg version="1.1" id="Layer_1" xmlns="http://www.w3.org/2000/svg" xmlns:xlink="http://www.w3.org/1999/xlink" x="0px" y="0px"
	 width="100%" viewBox="0 0 1024 1008" enable-background="new 0 0 1024 1008" xml:space="preserve">
<path fill="#000000" opacity="1.000000" stroke="none" 
	d="
M358.551208,580.487549 
	C372.142395,571.502014 386.959686,567.776123 402.672791,566.609985 
	C410.986084,565.993103 419.348572,564.704651 427.571747,566.140259 
	C444.926270,569.170044 455.555450,581.866150 456.947662,602.038330 
	C458.551880,625.282288 459.639191,648.578491 460.231293,671.870300 
	C460.663452,688.871704 452.323456,701.274292 436.932953,708.246948 
	C425.267456,713.531860 413.360626,718.498474 401.161774,722.337585 
	C385.876556,727.147827 383.378540,732.947510 385.460846,749.006104 
	C390.924408,791.140747 407.649933,828.272888 435.508331,860.314026 
	C444.459076,870.608643 454.147888,880.208313 465.608307,888.596680 
	C467.543915,884.404602 467.021851,880.337219 467.346039,876.567810 
	C468.728912,860.488403 469.619080,844.366394 470.672913,828.258911 
	C472.291656,803.517883 473.929352,778.778015 475.497620,754.033813 
	C476.613525,736.426270 477.580841,718.809326 478.701385,701.202087 
	C479.906281,682.269287 481.226593,663.343750 482.467163,644.413147 
	C482.913239,637.606201 483.398804,630.797852 483.627197,623.982117 
	C483.763580,619.912415 484.953888,616.719421 489.145569,615.524048 
	C493.216919,614.362976 495.687286,616.642029 497.788544,619.800415 
	C507.078735,633.764343 518.301208,646.028503 530.890198,657.066345 
	C532.099976,658.127014 533.044922,659.648254 535.466736,659.848328 
	C537.196960,651.497253 540.236328,644.008301 534.439087,635.029297 
	C517.268127,608.434509 507.817261,578.774231 504.713989,547.373352 
	C497.675598,476.154816 518.665527,414.616333 569.817932,363.978760 
	C572.995850,360.832794 573.305542,357.169769 573.493103,353.513153 
	C575.538940,313.635651 572.954407,274.275604 559.383179,236.276306 
	C546.037781,198.909180 525.297546,166.708847 493.487823,142.247620 
	C486.767731,137.079971 487.093201,132.086594 494.167603,127.116318 
	C543.115479,92.727036 592.063049,58.337341 641.019287,23.959967 
	C652.511780,15.889858 658.732788,15.925819 671.005859,24.535042 
	C715.065918,55.441982 759.073730,86.423439 803.103638,117.373367 
	C805.363831,118.962143 807.645813,120.519936 810.055969,122.187859 
	C811.525879,119.391090 811.059387,117.034431 811.068237,114.774666 
	C811.114502,102.942123 811.018188,91.108917 811.086548,79.276604 
	C811.140869,69.866890 813.360229,67.685806 822.538269,67.680038 
	C838.371033,67.670097 854.203735,67.667633 870.036499,67.678787 
	C879.171997,67.685219 881.297791,69.769119 881.301758,78.756462 
	C881.314697,107.922028 881.397034,137.088135 881.218933,166.252579 
	C881.192322,170.609543 882.679688,173.166061 886.210815,175.634476 
	C927.589600,204.559708 968.845093,233.661118 1010.156555,262.682831 
	C1016.377075,267.052826 1020.919006,272.443268 1022.496765,280.139526 
	C1025.632935,295.437164 1014.128052,310.179291 998.491455,310.274750 
	C972.493347,310.433502 946.493713,310.338867 920.494690,310.347961 
	C912.289001,310.350830 912.282288,310.346466 912.281677,318.310944 
	C912.274597,406.974304 912.261475,495.637665 912.276001,584.301025 
	C912.277649,594.360352 909.345398,603.000793 900.775513,609.015320 
	C896.716309,611.864136 892.180237,613.599426 887.191101,613.244324 
	C883.366760,612.972168 881.660156,614.737793 880.093750,617.987244 
	C857.577209,664.696899 822.993835,699.189636 775.231384,719.755737 
	C747.071899,731.880920 717.514465,736.613220 686.854187,733.463867 
	C683.067139,733.074890 679.260132,732.879028 675.450378,732.592773 
	C674.226807,734.142761 675.258118,735.538818 675.690674,736.840759 
	C692.650208,787.882812 705.346069,840.123413 719.274536,892.015381 
	C721.943970,901.960571 725.309021,911.752869 726.516724,922.061584 
	C729.656006,948.858276 721.068054,971.337463 701.092041,989.245056 
	C687.239075,1001.663635 670.542542,1007.205139 652.018005,1007.211426 
	C592.020264,1007.231750 532.022522,1007.202393 472.024811,1007.183350 
	C470.193787,1007.182800 468.326599,1007.296082 466.538940,1006.990112 
	C462.248932,1006.255920 459.633148,1003.864441 459.663208,999.220886 
	C459.665375,998.887573 459.596741,998.537476 459.674622,998.223328 
	C462.228577,987.924011 457.503510,982.867798 448.271332,978.400208 
	C432.959930,970.990845 419.591278,960.259094 406.696442,949.116333 
	C405.206329,947.828735 403.700531,946.559204 402.096375,945.191162 
	C400.662201,947.059937 401.263245,948.950195 401.329926,950.658569 
	C401.927277,965.963440 402.717621,981.261230 403.260040,996.567810 
	C403.535858,1004.351501 400.707275,1007.147522 392.922272,1007.176270 
	C376.423096,1007.237244 359.923462,1007.252197 343.424286,1007.204956 
	C336.632019,1007.185547 333.529785,1004.141235 333.798889,997.355286 
	C334.966827,967.904358 336.325226,938.460938 337.513824,909.010742 
	C338.091461,894.699524 338.439941,880.379089 338.914703,866.063599 
	C338.971954,864.336792 338.502625,862.808960 337.698730,861.297974 
	C319.272034,826.664246 307.863037,789.884827 303.443909,750.869568 
	C299.165710,713.098694 302.026642,676.080872 314.726624,640.132446 
	C323.236969,616.043274 336.641785,595.303894 358.551208,580.487549 
M579.394226,695.717529 
	C583.105591,694.793518 586.996094,694.303528 590.493408,692.860718 
	C599.498291,689.145935 606.835754,691.414307 615.105103,696.288452 
	C649.870972,716.779968 687.725098,724.342834 727.564270,718.273621 
	C780.715027,710.176453 822.069153,682.361450 852.037903,638.231873 
	C884.481506,590.457825 894.583618,537.596924 883.440125,481.018829 
	C874.667786,436.479126 854.092896,398.012604 818.866333,368.937347 
	C761.053833,321.220123 696.629761,311.075562 627.975220,341.799591 
	C576.792114,364.704895 544.562134,405.702454 527.419067,458.687531 
	C517.213440,490.230804 514.672058,522.412842 520.093201,555.247009 
	C524.799072,583.748840 534.835510,610.112976 550.358276,634.422607 
	C552.377686,637.585144 553.861572,640.668701 553.087097,644.678040 
	C549.555176,662.962585 546.204468,681.281982 542.782532,699.587830 
	C542.484497,701.182556 541.751282,702.807556 543.578064,704.617554 
	C555.091248,701.743225 566.835327,698.811279 579.394226,695.717529 
M588.295776,338.397552 
	C588.523621,341.272583 587.635498,344.262939 588.850403,347.310760 
	C648.793152,307.576385 712.055176,297.994415 778.470032,326.789001 
	C844.394470,355.371033 881.283936,408.190796 897.830872,477.855133 
	C897.830872,475.903473 897.830750,475.075378 897.830872,474.247314 
	C897.837097,418.923737 897.835510,363.600189 897.856506,308.276611 
	C897.860352,298.198029 900.175049,295.875824 910.168152,295.866699 
	C938.996460,295.840424 967.824768,295.870514 996.652954,295.812775 
	C1003.264099,295.799530 1006.206482,293.686218 1007.986938,288.161316 
	C1009.616760,283.103821 1008.091370,278.862061 1002.983398,275.263947 
	C960.081604,245.043137 917.200562,214.792328 874.161804,184.767578 
	C869.108704,181.242432 866.817871,177.333923 866.862854,171.167068 
	C867.064514,143.506744 866.869019,115.843674 867.014465,88.182625 
	C867.037537,83.794189 865.966614,81.867897 861.170593,82.007240 
	C851.014587,82.302315 840.840271,82.226959 830.680420,81.997032 
	C826.536682,81.903267 825.203674,83.335999 825.254761,87.470764 
	C825.448242,103.132317 825.296204,118.797836 825.356995,134.461548 
	C825.369934,137.798920 824.986023,140.869812 821.771240,142.658310 
	C818.438965,144.512177 815.375061,143.555695 812.441528,141.505814 
	C805.614014,136.734985 798.722229,132.055817 791.909302,127.264465 
	C748.712830,96.885620 705.541016,66.471687 662.332947,36.109386 
	C655.692200,31.442936 655.267700,31.557207 649.147827,35.860989 
	C609.223755,63.937618 569.287964,91.997704 529.364807,120.075706 
	C522.477295,124.919701 515.631775,129.823425 508.345276,134.999008 
	C510.609192,137.149796 512.263000,138.753067 513.950867,140.319656 
	C538.813354,163.396469 556.969299,190.976608 569.363159,222.480148 
	C583.908691,259.453217 589.134827,297.936157 588.295776,338.397552 
M322.320160,778.313232 
	C333.697540,828.893799 356.189911,873.922119 390.657776,912.654175 
	C423.756836,949.847961 463.191620,977.213623 512.660400,988.149902 
	C538.607361,993.886108 564.427673,995.044312 589.871460,985.659607 
	C606.162659,979.650818 618.893860,969.726196 625.914551,953.229858 
	C630.412231,942.661682 635.654968,932.413208 640.340393,921.921814 
	C644.827454,911.874695 642.199524,901.523438 633.752686,894.521240 
	C629.998535,891.409058 625.657288,889.271545 621.415222,886.968994 
	C605.605286,878.387512 589.717773,869.946289 573.990723,861.215637 
	C559.175781,852.991333 549.274841,854.963745 538.851807,868.454468 
	C529.686768,880.316833 520.460266,892.133545 511.116272,903.855103 
	C500.624695,917.016235 485.369049,919.532532 471.086365,910.416748 
	C458.555359,902.418701 446.791565,893.372986 436.342224,882.775635 
	C399.049561,844.955078 376.697205,799.895020 370.837036,746.889465 
	C368.656036,727.162109 377.206024,714.705261 394.476562,709.386292 
	C407.510132,705.372253 420.196777,700.184875 432.483795,694.184387 
	C441.697845,689.684631 447.124695,679.983276 446.553619,670.160767 
	C445.230225,647.397156 443.906555,624.632751 442.783173,601.858765 
	C442.131134,588.640198 433.171234,579.858887 419.878693,580.184204 
	C413.396088,580.342834 406.908875,580.784058 400.451233,581.390259 
	C387.851410,582.573059 375.968506,585.861023 365.385742,593.244385 
	C346.366150,606.513977 334.992981,625.300964 327.610962,646.582214 
	C312.692413,689.589844 312.682037,733.378296 322.320160,778.313232 
M523.570923,669.953064 
	C514.246338,661.850586 505.848358,652.776672 496.656036,643.178772 
	C495.822388,655.476868 495.021240,666.565430 494.329712,677.660828 
	C493.191284,695.927002 492.180450,714.201294 491.012360,732.465515 
	C489.494171,756.202881 487.886658,779.934570 486.294403,803.667114 
	C485.414642,816.779846 484.451965,829.887085 483.590820,843.001038 
	C482.468140,860.097778 481.478394,877.203613 480.274719,894.294495 
	C479.967682,898.654053 482.051849,900.283447 485.952911,900.750916 
	C492.044800,901.480835 496.542389,898.994141 500.206970,894.296936 
	C509.939728,881.821350 519.598572,869.282288 529.592590,857.017700 
	C542.975037,840.595154 560.466370,837.470520 579.079468,847.619690 
	C597.211060,857.506409 615.402283,867.284302 633.596680,877.055237 
	C655.362427,888.744019 662.240417,909.050476 651.910400,931.578796 
	C646.913330,942.476624 641.840393,953.341248 636.656860,964.151367 
	C632.937500,971.908081 627.824646,978.637512 621.007080,983.985718 
	C617.557007,986.692200 614.108215,989.400513 609.925171,992.683899 
	C625.463745,992.683899 640.089722,992.764954 654.714233,992.653198 
	C663.321533,992.587463 671.548950,990.584229 679.257507,986.728271 
	C705.172363,973.765198 718.299133,944.017212 710.702881,915.389648 
	C701.614441,881.138550 692.570374,846.875000 683.281982,812.677917 
	C676.130493,786.348267 669.461304,759.864929 659.566101,734.354004 
	C658.193909,730.816467 656.427124,728.526611 652.519836,727.547119 
	C637.906921,723.883850 623.862549,718.475647 611.090576,710.547119 
	C603.949402,706.114075 597.556885,705.583130 589.607666,707.825012 
	C572.324402,712.699646 554.764709,716.598450 537.302979,720.834229 
	C528.514771,722.966064 524.663452,719.343811 526.319153,710.738708 
	C527.794617,703.070679 528.655762,695.240723 530.733337,687.744263 
	C532.894653,679.945618 531.496155,674.218140 523.570923,669.953064 
M351.228516,921.453430 
	C350.264404,943.402893 349.361725,965.355408 348.281281,987.299133 
	C348.079163,991.403809 349.401428,992.894043 353.608856,992.787354 
	C363.431152,992.538269 373.269562,992.504150 383.089813,992.786926 
	C387.492554,992.913757 388.947449,991.512329 388.738190,987.100098 
	C387.878815,968.978210 387.269196,950.844238 386.601227,932.713562 
	C386.501709,930.012390 385.118683,928.056885 383.383789,926.166382 
	C373.233368,915.106079 363.823395,903.456116 355.434387,890.990723 
	C354.782593,890.022217 354.453674,888.444580 351.249115,888.608337 
	C351.249115,899.228760 351.249115,909.849243 351.228516,921.453430 
M892.169617,587.487671 
	C891.445190,590.893616 889.285034,593.998840 889.717590,598.193237 
	C895.110657,596.281250 897.684753,592.803528 897.790161,587.647400 
	C897.929016,580.856201 897.824219,574.060059 897.824219,566.583557 
	C895.881470,573.734558 894.119446,580.220154 892.169617,587.487671 
z"/>
<path fill="#000000" opacity="1.000000" stroke="none" 
	d="
M53.765038,759.945801 
	C55.869122,753.030396 57.771801,746.471680 59.953300,740.007019 
	C62.894424,731.291260 68.449226,725.343689 77.532761,722.392090 
	C108.143318,712.445374 138.288589,701.237854 166.307205,685.166870 
	C195.250626,668.565430 220.638870,647.821228 239.419815,619.780884 
	C241.619263,616.497009 244.249023,614.117493 248.521622,615.462891 
	C252.557495,616.733704 253.165985,619.986816 253.413956,623.773132 
	C255.218582,651.327393 257.266785,678.865662 259.068451,706.420166 
	C260.306152,725.349609 261.177765,744.302734 262.382874,763.234497 
	C263.862366,786.476685 265.563385,809.704712 267.084259,832.944397 
	C268.236176,850.545471 269.201141,868.158813 270.348083,885.760315 
	C271.862518,909.002136 273.521729,932.234619 275.024536,955.477234 
	C275.894348,968.929443 276.722260,982.387512 277.296753,995.854553 
	C277.680573,1004.852417 275.243134,1007.161194 266.360809,1007.168213 
	C236.531937,1007.191956 206.703049,1007.214722 176.874176,1007.225586 
	C146.545334,1007.236633 116.216499,1007.240417 85.887665,1007.234314 
	C41.689442,1007.225403 7.700136,971.873901 9.830328,927.790710 
	C10.452934,914.906189 15.122555,902.770203 18.286034,890.380249 
	C29.400646,846.849426 41.412308,803.560425 53.765038,759.945801 
M233.656860,650.156006 
	C216.258499,669.070618 196.242172,684.661438 173.934525,697.380310 
	C146.449417,713.051086 117.108337,724.407043 87.114204,734.027832 
	C78.582954,736.764282 74.363518,741.482361 71.878555,749.771729 
	C55.821762,803.333862 41.666954,857.411194 27.452572,911.475342 
	C24.763416,921.703613 23.440607,931.891602 25.139509,942.552002 
	C29.608223,970.592773 54.982784,992.657959 83.394920,992.679504 
	C101.555672,992.693298 119.716438,992.699341 137.877197,992.701050 
	C177.530960,992.704712 217.184937,992.646057 256.838226,992.784241 
	C261.276978,992.799683 263.303467,991.780029 262.777130,986.937439 
	C262.130737,980.990662 262.008148,974.986816 261.660034,969.007629 
	C260.615540,951.066467 259.698547,933.116821 258.497589,915.186157 
	C256.696472,888.295288 254.601349,861.424194 252.809494,834.532715 
	C251.271698,811.454163 250.013168,788.356995 248.578247,765.271362 
	C246.627228,733.882263 244.779602,702.485413 242.550674,671.115784 
	C241.897888,661.928772 241.988754,652.640320 240.198288,643.043701 
	C237.941711,645.505676 236.043976,647.576172 233.656860,650.156006 
z"/>
<path fill="#000000" opacity="1.000000" stroke="none" 
	d="
M249.897705,225.951904 
	C271.600006,193.333084 300.010834,170.195206 338.475525,161.685669 
	C384.017944,151.610306 424.384338,163.335175 458.918060,194.097443 
	C489.211945,221.082977 505.304016,255.944550 512.466736,295.474884 
	C518.788452,330.363556 513.224976,364.079681 503.263092,397.363373 
	C488.839966,445.552765 466.997681,489.983551 435.140930,529.212585 
	C428.069336,537.920654 420.209045,545.789062 411.256012,552.547485 
	C384.003540,573.119507 354.565186,573.533203 326.668427,553.697021 
	C311.911926,543.204346 300.703918,529.291199 290.412750,514.717407 
	C257.512268,468.125641 234.614090,417.087311 224.194992,360.849884 
	C215.293640,312.804535 224.088058,267.878235 249.897705,225.951904 
M241.477890,375.045624 
	C252.005981,416.752502 269.181915,455.612518 292.123413,491.905914 
	C302.820068,508.827972 314.434875,525.162231 329.874908,538.244080 
	C353.308594,558.098694 378.110229,558.938843 402.945557,540.946838 
	C410.008789,535.829895 416.133453,529.708557 421.700195,523.038147 
	C450.809448,488.157837 471.049438,448.378174 485.643768,405.642120 
	C497.359314,371.335785 504.842346,336.395325 498.801666,299.765015 
	C492.667603,262.568268 477.274872,230.297775 449.095123,204.708527 
	C408.724884,168.049408 352.293732,161.678360 306.210236,190.284683 
	C259.683136,219.166382 239.804550,264.006256 235.397156,316.866425 
	C233.778336,336.281708 236.766571,355.375732 241.477890,375.045624 
z"/>
<path fill="#000000" opacity="1.000000" stroke="none" 
	d="
M641.843018,490.942627 
	C645.332031,480.120422 648.810242,469.699615 651.998474,459.190826 
	C653.146973,455.405365 655.115479,453.530212 659.148010,453.946777 
	C660.795959,454.117065 662.491455,454.107147 664.140015,453.935760 
	C668.136719,453.520203 670.089905,455.274292 671.262695,459.123413 
	C675.236694,472.165985 679.536133,485.109406 684.765747,498.248138 
	C686.770386,492.280518 688.821228,486.327881 690.767822,480.341400 
	C693.135315,473.061005 695.537048,465.787598 697.674133,458.438507 
	C698.561462,455.387207 700.179321,454.050476 703.322998,454.001465 
	C719.399536,453.750885 716.257080,453.593567 712.425049,465.543945 
	C706.733459,483.293213 700.944092,501.013123 695.494812,518.836731 
	C694.236145,522.953552 692.231689,524.323792 688.048706,524.218933 
	C672.764465,523.835632 676.597595,525.939087 672.012817,512.820129 
	C668.409241,502.508575 665.213135,492.054626 661.414856,480.368042 
	C657.069519,493.658752 652.900452,505.572906 649.349915,517.668640 
	C647.861755,522.738464 645.476013,524.475891 640.187439,524.264160 
	C626.962280,523.734619 629.705627,525.631348 625.717773,513.441528 
	C619.870483,495.567993 614.217712,477.630798 608.495667,459.716400 
	C608.047485,458.313232 607.706177,456.875885 607.141296,454.822113 
	C612.659729,453.456635 617.883362,453.786163 623.072083,454.425690 
	C625.341064,454.705353 625.400879,457.074677 625.935486,458.725647 
	C629.728455,470.439575 633.424622,482.184784 637.167236,493.915100 
	C637.567932,495.171021 638.068359,496.395111 638.701294,498.121399 
	C640.915466,496.078033 640.673157,493.381866 641.843018,490.942627 
z"/>
<path fill="#000000" opacity="1.000000" stroke="none" 
	d="
M719.602417,623.482910 
	C728.036316,634.410889 736.258789,645.059265 744.532166,655.773499 
	C736.932495,659.736023 725.086243,657.360901 720.284424,651.245544 
	C715.165710,644.726379 710.034790,638.216736 704.906494,631.699524 
	C698.105469,635.879944 695.559998,641.372131 696.138550,649.040955 
	C696.759033,657.266296 696.277039,657.311096 688.250610,657.298157 
	C678.035522,657.281677 678.849548,658.018188 678.845459,647.805115 
	C678.838379,629.981201 678.973816,612.156067 678.784851,594.334290 
	C678.733765,589.512756 680.038025,587.468506 685.263794,587.640503 
	C697.752258,588.051392 696.155762,586.506226 696.286438,598.614990 
	C696.350586,604.555786 696.297607,610.497864 696.297607,617.314514 
	C699.568298,614.159851 702.238770,611.783447 704.678162,609.189697 
	C709.812378,603.730896 714.978394,598.288330 719.832336,592.584595 
	C722.887329,588.994751 726.245972,587.168518 731.071228,587.664246 
	C734.803833,588.047668 738.607483,587.740723 742.039246,587.740723 
	C743.124756,590.164551 741.767578,590.952515 740.934448,591.867615 
	C733.872253,599.624573 726.987854,607.561707 719.589233,614.985413 
	C716.432373,618.152954 716.504517,620.387512 719.602417,623.482910 
z"/>
<path fill="#000000" opacity="1.000000" stroke="none" 
	d="
M608.124634,515.975464 
	C609.118591,518.457703 609.962952,520.590637 611.109253,523.486267 
	C605.137878,524.587952 599.727173,524.526001 594.435059,523.701050 
	C591.628174,523.263489 591.568176,519.874084 590.607300,517.672485 
	C587.254761,509.990967 587.313843,509.974884 579.022034,509.980499 
	C573.195862,509.984436 567.365906,510.078217 561.544983,509.896820 
	C558.283447,509.795227 556.427124,510.919250 555.113464,514.050049 
	C550.771423,524.397705 550.653748,524.362305 539.273682,524.095520 
	C537.665649,524.057800 535.910034,524.469238 534.533875,523.002563 
	C533.924133,521.245361 535.021729,519.825317 535.656006,518.357910 
	C544.170898,498.657379 552.822815,479.015167 561.181152,459.248718 
	C562.892883,455.200775 565.306152,453.849121 569.529053,453.933075 
	C582.989258,454.200623 580.077332,452.807800 585.144958,464.054779 
	C592.867798,481.194458 600.375793,498.430908 608.124634,515.975464 
M578.639343,488.728180 
	C576.456787,483.858429 575.077576,478.607513 571.760803,473.416473 
	C568.753662,480.983917 566.038025,487.817932 562.947571,495.595062 
	C569.434448,495.608917 574.862122,496.221527 580.253357,495.219666 
	C580.482788,492.722107 579.532349,491.124908 578.639343,488.728180 
z"/>
<path fill="#000000" opacity="1.000000" stroke="none" 
	d="
M726.422852,524.065430 
	C721.557739,523.903625 717.059509,524.723022 712.466003,523.368652 
	C712.345215,519.513062 714.446472,516.559692 715.763367,513.458008 
	C723.571350,495.067657 731.624634,476.781372 739.418396,458.385101 
	C740.718628,455.315948 742.508057,454.088043 745.765442,453.955841 
	C758.474304,453.440155 758.368103,453.410400 763.515015,465.276672 
	C771.133545,482.841339 778.903870,500.340271 786.635315,517.855835 
	C789.090576,523.418213 788.744202,523.997803 782.598206,524.115417 
	C782.265076,524.121765 781.924744,524.079163 781.599731,524.132568 
	C774.257324,525.338684 768.983582,523.481384 767.360901,515.256226 
	C766.523071,511.009399 763.456543,509.650970 759.157104,509.889862 
	C753.510437,510.203644 747.802429,510.335388 742.177979,509.863434 
	C736.630066,509.397919 733.512634,511.207306 731.951965,516.696960 
	C731.161560,519.477051 730.848389,523.208435 726.422852,524.065430 
M753.368835,481.079285 
	C752.343079,478.729462 751.317383,476.379608 749.937439,473.218384 
	C746.677795,480.963806 743.520630,487.640656 741.296753,495.414703 
	C747.384399,495.890594 752.705872,495.878723 758.866699,495.422272 
	C756.942200,490.375824 755.304016,486.080078 753.368835,481.079285 
z"/>
<path fill="#000000" opacity="1.000000" stroke="none" 
	d="
M609.789551,636.999634 
	C609.786377,622.168152 609.905273,607.834839 609.708435,593.505920 
	C609.649719,589.228821 610.934204,587.454163 615.402710,587.688721 
	C626.365967,588.264038 637.400452,586.782349 648.323486,588.624817 
	C661.973145,590.927124 669.881287,600.091370 669.771118,613.285828 
	C669.662048,626.342407 661.986877,634.830933 648.353455,637.452759 
	C642.705688,638.538879 637.067627,638.201050 631.421326,638.228882 
	C628.485901,638.243286 627.124451,639.234070 627.237671,642.300842 
	C627.372803,645.961426 627.206299,649.632141 627.243591,653.297729 
	C627.270569,655.952637 626.160828,657.390381 623.386292,657.271545 
	C623.220215,657.264404 623.053101,657.283691 622.886597,657.282410 
	C607.427551,657.161133 610.050293,659.118774 609.799683,644.998535 
	C609.755310,642.499634 609.791687,639.999207 609.789551,636.999634 
M645.949463,622.752808 
	C650.498047,621.205383 652.415955,617.705627 652.594238,613.224121 
	C652.757568,609.120361 651.236938,605.540039 647.306396,603.836548 
	C641.298950,601.232910 634.417725,600.980530 628.841187,603.129944 
	C624.998840,604.610901 627.889465,610.973145 627.319641,615.108459 
	C627.072876,616.898865 627.323181,618.755737 627.319580,620.582336 
	C627.315552,622.604492 628.245850,623.731567 630.323059,623.659485 
	C635.278687,623.487671 640.281250,624.358276 645.949463,622.752808 
z"/>
<path fill="#000000" opacity="1.000000" stroke="none" 
	d="
M783.707764,587.798462 
	C785.484802,588.038940 786.800659,588.236084 788.108032,588.478516 
	C803.507385,591.333923 811.239563,600.737000 810.271179,615.421082 
	C809.406433,628.534790 799.359619,637.481079 784.513672,638.200684 
	C780.194580,638.410034 775.856445,638.352905 771.530762,638.255615 
	C768.520752,638.187927 767.327881,639.535034 767.388184,642.459229 
	C767.463745,646.119629 767.284668,649.785461 767.367371,653.445435 
	C767.429871,656.214783 766.184998,657.135498 763.489319,657.330261 
	C750.624878,658.259521 750.642761,658.324585 750.651978,645.390564 
	C750.664307,628.076416 750.766663,610.760986 750.573547,593.449036 
	C750.525330,589.124451 751.852478,587.532837 756.275269,587.669800 
	C765.256897,587.947815 774.252686,587.767456 783.707764,587.798462 
M778.317261,623.704285 
	C781.142151,623.748779 783.959778,623.735352 786.640808,622.647461 
	C790.355164,621.140320 792.471191,618.469788 792.808472,614.402832 
	C793.405151,607.206970 789.518982,602.408020 782.202698,602.387329 
	C764.185608,602.336365 767.737000,599.885986 767.415710,615.640564 
	C767.222717,625.104553 766.689087,623.562439 778.317261,623.704285 
z"/>
<path fill="#000000" opacity="1.000000" stroke="none" 
	d="
M798.863708,504.972321 
	C805.799011,509.026184 812.803833,511.300720 820.584595,510.760437 
	C822.801636,510.606476 824.876465,510.141571 826.762451,509.023315 
	C830.882874,506.580200 830.975769,502.379059 826.891907,499.929932 
	C824.608582,498.560577 822.038147,497.829254 819.423096,497.221344 
	C813.433289,495.828979 807.391907,494.586212 801.804077,491.843689 
	C788.199158,485.166351 786.858826,467.543793 799.300110,458.710358 
	C809.646729,451.364166 831.446716,451.116882 842.317383,458.144806 
	C843.945251,459.197266 844.852478,460.284851 843.920227,462.200836 
	C842.262085,465.608673 841.283997,469.360352 838.659485,472.799683 
	C834.060181,471.014618 829.715637,468.505280 824.756836,467.776215 
	C820.749023,467.187042 816.798767,466.926727 812.963684,468.495270 
	C810.356140,469.561768 808.322388,471.195526 808.340027,474.351562 
	C808.357239,477.421326 810.549377,478.765686 812.995361,479.506805 
	C817.927246,481.001190 822.959778,482.160675 827.908203,483.604431 
	C830.772705,484.440155 833.632263,485.383820 836.357544,486.587830 
	C842.980042,489.513580 846.872192,494.446869 847.337952,501.909302 
	C847.858948,510.255402 844.321045,516.449524 837.411377,520.724182 
	C826.360168,527.560852 802.303040,526.126587 791.985352,518.210144 
	C790.767029,517.275391 789.390869,516.348877 790.175232,514.567871 
	C791.582764,511.371857 793.068604,508.203369 794.686584,505.109558 
	C795.675049,503.219391 797.173889,504.029816 798.863708,504.972321 
z"/>
<path fill="#000000" opacity="1.000000" stroke="none" 
	d="
M873.317688,500.000061 
	C873.312622,506.825714 873.215149,513.153198 873.341125,519.476196 
	C873.402893,522.578125 872.343018,524.117920 869.068848,524.098206 
	C853.941467,524.007202 856.168701,525.503967 856.085388,512.087830 
	C855.978943,494.942535 856.010620,477.796295 856.017761,460.650452 
	C856.020264,454.561340 856.503906,454.051697 862.495056,454.020477 
	C875.378235,453.953339 873.206909,453.463562 873.312317,464.542725 
	C873.423096,476.194122 873.324402,487.847534 873.317688,500.000061 
z"/>
</svg>