<svg version="1.1" id="Layer_1" xmlns="http://www.w3.org/2000/svg" xmlns:xlink="http://www.w3.org/1999/xlink" x="0px" y="0px"
	 width="100%" viewBox="0 0 1024 1024" enable-background="new 0 0 1024 1024" xml:space="preserve">
<path fill="#000000" opacity="1.000000" stroke="none" 
	d="
M360.024719,147.943787 
	C394.426910,128.854279 430.952850,117.377998 469.576660,112.974167 
	C527.394836,106.381851 583.990601,111.299065 638.157288,133.913574 
	C690.417053,155.731903 733.288940,189.735779 766.843689,235.406403 
	C797.878784,277.647614 817.423523,324.749420 826.039185,376.376892 
	C828.861877,393.291473 830.395630,410.351593 830.334412,427.554718 
	C830.200378,465.219299 830.311401,502.884735 830.290649,540.549805 
	C830.272400,573.601379 811.947083,596.439331 779.736084,603.702271 
	C777.870667,604.122803 775.624756,604.084412 774.709900,606.391968 
	C772.417725,612.173157 769.232544,617.408142 765.241577,622.181458 
	C761.247070,626.959045 756.166748,630.427612 750.786865,634.029480 
	C755.918274,641.096313 760.883179,647.919373 765.828369,654.756592 
	C766.804138,656.105713 767.756775,657.477051 768.630981,658.893250 
	C774.206970,667.925842 773.662781,671.214478 765.087952,677.692627 
	C762.705566,679.492493 762.310608,681.207092 762.956726,684.069397 
	C765.375671,694.784241 767.639343,705.511475 765.414246,716.655396 
	C762.407288,731.714722 751.099243,738.771851 736.191101,734.642578 
	C727.090027,732.121765 719.906738,726.613159 713.113037,719.774231 
	C713.113037,724.975342 713.183594,729.711914 713.095581,734.445618 
	C712.977661,740.791626 710.340698,744.364197 704.247803,746.146790 
	C700.097107,747.361145 695.839233,748.286682 691.484680,748.324402 
	C687.354675,748.360168 685.573059,750.278503 685.312683,754.409058 
	C684.841858,761.876465 684.047058,769.325073 683.307129,776.773499 
	C682.719299,782.691284 679.906067,785.309875 673.809204,785.349854 
	C659.810364,785.441650 645.807983,785.552185 631.812805,785.314941 
	C627.471985,785.241394 625.208801,786.461914 623.927673,790.821899 
	C621.856995,797.869263 618.638672,804.482727 614.060974,810.337524 
	C611.787964,813.244629 609.232117,815.844299 606.126770,817.876892 
	C595.797974,824.637512 585.194397,822.253723 578.748352,811.673584 
	C574.797119,805.188293 572.513611,798.044250 571.000854,790.680054 
	C570.338379,787.454956 568.849060,786.342468 565.606628,786.242737 
	C557.483765,785.992798 555.771790,784.643372 553.675598,777.112244 
	C553.013611,774.734070 551.558228,774.410278 549.611023,774.415649 
	C525.947327,774.480774 502.283691,774.567627 478.619965,774.585999 
	C475.981812,774.588013 474.427917,775.291382 473.543701,778.112000 
	C471.474182,784.713562 469.227539,786.485657 462.244324,786.155151 
	C457.391876,785.925537 455.535339,787.605652 454.705841,792.304443 
	C453.429169,799.536499 450.979553,806.480225 446.680634,812.597107 
	C439.586853,822.690918 428.724030,824.547363 418.887634,817.103394 
	C410.837402,811.011108 406.794006,802.232361 403.592194,792.992371 
	C400.968231,785.419983 400.977081,785.414734 392.769684,785.407288 
	C380.103546,785.395691 367.437195,785.432007 354.771393,785.360291 
	C347.910858,785.321472 345.452942,783.341370 344.521515,776.463806 
	C343.562347,769.381287 342.989349,762.239380 342.468506,755.107300 
	C342.169189,751.008850 340.587799,748.799133 336.171204,748.613892 
	C331.692596,748.426025 327.211517,747.742554 322.970093,746.138672 
	C317.062042,743.904541 314.945496,740.775879 314.694885,734.446594 
	C314.519867,730.026733 315.186920,725.553894 314.227448,721.080566 
	C311.621765,721.264282 310.667328,723.262329 309.305664,724.561401 
	C302.285248,731.258789 293.982056,735.036499 284.338989,735.911133 
	C274.873901,736.769714 266.152557,730.477905 262.932343,720.510925 
	C260.190186,712.023499 260.595764,703.441223 262.129181,694.828491 
	C262.536896,692.538269 262.964935,690.240295 263.585510,688.001831 
	C265.085815,682.590271 264.572662,678.378845 259.075958,674.975891 
	C254.431274,672.100403 253.911041,668.219238 256.861023,663.181213 
	C268.563110,643.196167 282.235809,624.835754 301.447418,611.282715 
	C305.774658,608.230042 305.823547,608.299316 305.283203,602.304504 
	C291.004059,606.989380 276.330933,604.680664 261.818817,604.919373 
	C244.165771,605.209656 228.336411,599.945862 215.337555,587.507568 
	C203.598038,576.274353 197.001633,562.542664 196.730148,546.284302 
	C196.265549,518.462341 195.663818,490.618835 196.285599,462.810455 
	C196.754456,441.841614 195.614471,420.820129 197.782120,399.893707 
	C201.040955,368.433014 208.220703,337.914215 220.036499,308.547546 
	C242.919128,251.675583 278.638092,204.654846 328.124695,168.284515 
	C338.201019,160.878891 348.766937,154.200882 360.024719,147.943787 
M505.084686,646.394104 
	C506.663757,647.876221 508.353851,649.258301 509.798553,650.861511 
	C512.709534,654.091858 515.035400,653.699890 518.010498,650.607117 
	C522.738403,645.692200 527.892212,641.178711 532.976868,636.619141 
	C535.169983,634.652527 536.436829,632.529663 537.007874,629.503052 
	C539.121399,618.301636 546.215515,611.679382 557.693542,610.385498 
	C563.293762,609.754272 569.006592,609.915100 574.662354,610.027100 
	C586.644714,610.264404 598.680664,609.046082 610.592163,610.848083 
	C613.855774,611.341797 616.751282,611.203918 619.839172,610.283691 
	C645.680542,602.582764 671.536133,594.929260 697.405334,587.322388 
	C706.668152,584.598694 706.666382,584.674866 706.664429,575.055115 
	C706.654236,524.896240 706.655457,474.737396 706.662170,424.578552 
	C706.662476,422.580475 706.334412,420.451904 706.900146,418.611969 
	C708.011719,414.997009 706.210266,413.196198 703.679443,411.157166 
	C642.051208,361.503113 580.471924,311.788422 518.892212,262.074097 
	C513.259460,257.526703 513.315308,257.530273 507.721954,262.047546 
	C470.400726,292.188385 433.081543,322.331787 395.729706,352.434601 
	C373.681702,370.203674 351.681274,388.034973 329.427734,405.543762 
	C322.992188,410.607178 319.854584,415.594788 319.981018,424.675476 
	C320.693176,475.824249 320.386963,526.988281 320.210297,578.146362 
	C320.194672,582.663757 321.543182,584.583374 325.864105,585.791748 
	C372.185272,598.745239 418.357697,612.243225 464.792572,624.770264 
	C479.924316,628.852478 493.841614,634.075745 505.084686,646.394104 
M634.257507,281.219116 
	C675.139771,314.119476 715.943176,347.118835 756.992310,379.809631 
	C762.905762,384.519012 765.771179,389.116760 762.267517,396.326141 
	C762.167725,396.531433 762.444702,396.919861 762.577759,397.317810 
	C766.325745,397.752655 770.108826,398.191528 773.891907,398.630493 
	C776.689819,398.955139 777.979126,397.978271 777.394531,394.949219 
	C776.513062,390.381683 775.970459,385.745056 774.993408,381.200226 
	C768.535828,351.162506 757.478943,322.869232 741.990662,296.371887 
	C711.158875,243.624786 668.339050,204.232346 611.359192,181.263748 
	C564.432434,162.347549 515.753784,158.867325 466.156982,167.314148 
	C416.515350,175.768570 373.311249,197.572968 336.808197,232.180634 
	C298.084808,268.893311 272.172302,313.560394 256.687927,364.433167 
	C253.925781,373.507935 252.018768,382.802063 250.482819,392.162292 
	C249.486649,398.233002 250.227600,398.927765 256.210907,398.173340 
	C258.990875,397.822815 261.795807,397.670319 264.399445,397.444519 
	C265.162323,396.186401 264.745270,395.233582 264.457367,394.294250 
	C262.183563,386.874664 262.464752,385.891144 268.358063,381.145111 
	C297.420074,357.740509 326.490082,334.345795 355.547668,310.935699 
	C405.621155,270.594177 455.690338,230.247330 505.753601,189.893127 
	C512.532288,184.429077 514.200989,184.475067 520.841797,189.831726 
	C558.447021,220.165070 596.084656,250.458054 634.257507,281.219116 
M236.553741,401.697418 
	C238.065979,387.767578 240.953842,374.081390 244.870926,360.673950 
	C257.514740,317.396637 277.973389,278.244110 307.711090,244.179184 
	C334.272980,213.752197 365.652557,189.593353 402.752106,173.407883 
	C453.277039,151.365280 505.968353,146.063690 560.204773,154.570480 
	C613.587708,162.943405 659.904907,185.858627 699.539001,222.507248 
	C732.680420,253.152237 756.890381,289.817780 773.251099,331.741852 
	C781.808289,353.669739 788.105286,376.220642 790.315552,399.756348 
	C790.549988,402.253418 791.622681,403.703735 793.770325,404.729156 
	C797.994141,406.745880 801.896973,409.275787 805.565979,412.198151 
	C810.143738,415.844330 813.819885,420.420959 818.241150,424.863037 
	C812.281250,235.416260 655.880920,92.294403 455.091980,127.560692 
	C375.187073,141.595078 311.566864,182.997665 265.289795,249.700912 
	C229.213348,301.701111 211.404587,359.988739 209.530045,423.247955 
	C215.411285,417.264648 221.272614,411.672394 228.351212,407.445862 
	C231.037308,405.842010 234.249283,405.033569 236.553741,401.697418 
M574.860535,248.658478 
	C558.396057,235.361908 541.947876,222.045120 525.455200,208.783630 
	C521.571106,205.660461 517.757996,200.707153 513.512817,200.242096 
	C508.837738,199.729950 505.149323,205.480850 501.196198,208.661026 
	C454.597229,246.148605 408.102356,283.765472 361.550323,321.311432 
	C334.319458,343.274139 307.033600,365.168701 279.777679,387.100342 
	C277.524200,388.913605 275.488129,390.619781 276.814667,394.200378 
	C278.124939,397.737213 280.689911,397.645844 283.622925,397.741913 
	C290.906433,397.980560 299.019348,395.550781 305.247589,399.537048 
	C312.812561,404.378815 317.523438,401.684082 322.660889,396.634308 
	C323.841125,395.474243 325.295959,394.597778 326.591309,393.549866 
	C386.696503,344.928833 446.796417,296.301178 506.902771,247.681534 
	C512.337830,243.285141 514.048584,243.235565 519.536621,247.644653 
	C549.933899,272.065857 580.318237,296.503326 610.678101,320.971069 
	C643.501282,347.424072 676.319824,373.883118 709.052368,400.447876 
	C712.037720,402.870728 714.289917,403.705109 717.719116,401.164337 
	C721.245056,398.551819 725.620667,397.736053 730.044983,397.713470 
	C734.711426,397.689697 739.381775,397.583588 744.043152,397.735229 
	C747.081909,397.834076 749.081726,396.877075 750.246948,393.908081 
	C751.497925,390.720642 749.422119,389.341644 747.454712,387.756226 
	C690.105408,341.542725 632.759155,295.325409 574.860535,248.658478 
M749.655273,651.817383 
	C748.746887,650.624939 747.699768,649.513062 746.953369,648.226624 
	C743.018311,641.444580 738.156494,638.504578 729.524719,640.088196 
	C715.925232,642.583191 701.951294,640.969299 688.138733,641.088684 
	C683.530701,641.128479 679.347107,642.011169 675.138184,643.874023 
	C646.976074,656.337952 618.767883,668.698364 590.534973,681.001465 
	C581.916199,684.757263 579.594727,684.485657 573.601929,677.268677 
	C563.721313,665.369629 552.769592,654.821472 538.441956,647.366516 
	C531.779785,653.528809 524.578918,660.440613 517.084839,667.018433 
	C513.148132,670.473877 511.253235,674.431885 511.282654,679.644043 
	C511.383301,697.466064 511.477051,715.290955 511.232544,733.110046 
	C511.168396,737.783630 512.694641,739.065186 517.227600,739.056946 
	C572.854492,738.956482 628.483398,739.215515 684.097961,737.697327 
	C688.074951,737.588806 692.040039,736.998230 696.007385,736.598755 
	C700.102905,736.186401 701.982666,734.372375 701.786072,729.789612 
	C701.001526,711.498962 700.589722,693.192261 700.041748,674.891541 
	C699.972168,672.566101 699.703064,670.227661 700.430725,667.947632 
	C701.361511,665.031311 703.328491,663.465332 706.416260,663.793457 
	C709.512451,664.122437 711.172974,666.035034 711.272644,669.134705 
	C711.385010,672.629761 711.206299,676.139832 711.441284,679.623962 
	C711.724670,683.824219 711.496155,688.132629 713.061707,692.711304 
	C728.638367,685.469910 743.464478,677.997620 757.552490,669.097229 
	C759.799683,667.677612 759.145325,666.061279 758.094299,664.443909 
	C755.465088,660.398254 752.745300,656.411438 749.655273,651.817383 
M270.895447,669.691711 
	C284.835388,678.038086 299.029968,685.878723 314.117737,692.263306 
	C315.472107,689.084778 315.588806,686.437805 315.614105,683.782593 
	C315.656952,679.285706 315.677338,674.788452 315.696350,670.291382 
	C315.711548,666.693237 316.978882,663.934143 320.984070,663.803894 
	C325.150421,663.668457 326.895477,666.385925 327.119598,670.166321 
	C327.257050,672.485229 327.124146,674.831970 326.958984,677.155212 
	C325.705811,694.783081 326.319672,712.446045 325.876648,730.087708 
	C325.773743,734.185303 327.290955,736.061646 331.328888,736.796448 
	C338.745331,738.145874 346.271210,738.463501 353.700073,738.484802 
	C400.498627,738.619324 447.283447,740.167786 494.087616,739.794373 
	C498.957336,739.755432 499.919189,737.984375 499.876953,733.659363 
	C499.709473,716.505127 499.771332,699.347778 499.862854,682.192200 
	C499.895721,676.030640 500.143158,669.838867 503.352386,664.281616 
	C504.250366,662.726562 504.110931,661.501099 502.781189,660.310852 
	C496.482635,654.673035 490.201324,649.015869 483.996124,643.439453 
	C480.724823,645.320862 479.106781,647.892822 477.159760,650.123596 
	C469.059174,659.404785 460.944733,668.674194 452.901611,678.005066 
	C449.520782,681.927246 445.559937,682.866699 440.825317,680.892944 
	C438.981934,680.124512 437.109161,679.426697 435.263641,678.663269 
	C399.115234,663.709778 362.971954,648.743835 326.819427,633.800415 
	C319.813416,630.904541 311.959930,629.417297 308.261475,621.953796 
	C307.376709,622.110840 306.989441,622.070679 306.745148,622.238525 
	C290.588135,633.337097 279.498657,648.886597 269.164825,665.093079 
	C268.042175,666.853699 268.663940,668.248352 270.895447,669.691711 
M258.671051,430.500305 
	C258.671051,423.722290 258.671051,416.944244 258.671051,410.217041 
	C234.887604,409.311920 208.725037,434.603516 208.375977,458.937286 
	C207.960342,487.914551 207.983917,516.907104 208.403793,545.884521 
	C208.741547,569.194580 228.325195,589.989990 251.443542,592.630249 
	C258.295959,593.412842 258.662567,593.081482 258.663239,585.913452 
	C258.668091,534.442383 258.668396,482.971283 258.671051,430.500305 
M768.162476,437.500000 
	C768.171814,486.950317 768.177490,536.400635 768.194519,585.850952 
	C768.197021,593.002075 768.984863,593.651428 775.952087,592.461060 
	C801.791565,588.046448 818.640564,568.118896 818.656799,541.909058 
	C818.672852,515.935181 818.521729,489.960266 818.712524,463.987762 
	C818.813049,450.302582 814.262573,438.482483 805.248169,428.469421 
	C795.595032,417.746948 783.711426,411.022766 768.164734,409.700592 
	C768.164734,418.960388 768.164734,427.730194 768.162476,437.500000 
M308.672241,573.317505 
	C308.673645,540.010193 308.675507,506.702881 308.676331,473.395569 
	C308.676727,456.741913 308.713593,440.088104 308.660065,423.434631 
	C308.628357,413.568878 304.439545,409.391418 294.721344,409.351868 
	C288.559601,409.326813 282.384766,409.594910 276.240082,409.270691 
	C271.725159,409.032440 270.177460,410.424164 270.231293,415.132996 
	C270.467316,435.780823 270.329102,456.432922 270.328796,477.083466 
	C270.328278,513.388428 270.326813,549.693420 270.332001,585.998413 
	C270.333008,593.002869 270.346191,593.006226 277.097382,593.030029 
	C281.260742,593.044739 285.424225,593.062195 289.587585,593.053101 
	C302.629517,593.024780 308.513641,587.223999 308.672241,573.317505 
M756.092773,490.500000 
	C756.077026,465.342834 755.985840,440.185303 756.118042,415.028900 
	C756.140686,410.716034 754.804138,409.031647 750.377258,409.275848 
	C744.729919,409.587311 739.052368,409.347687 733.387878,409.354462 
	C722.317627,409.367737 718.359314,413.297729 718.346375,424.424957 
	C718.319031,447.915985 718.332642,471.407104 718.331970,494.898163 
	C718.331177,521.054871 718.318604,547.211548 718.339966,573.368286 
	C718.351074,586.955078 724.284546,592.967957 737.659729,593.037170 
	C741.158325,593.055237 744.657043,593.064209 748.155701,593.061462 
	C756.007507,593.055481 756.063416,593.051453 756.070801,584.964355 
	C756.099060,553.809570 756.088379,522.654785 756.092773,490.500000 
M350.880920,604.770569 
	C341.741913,602.243774 332.591156,599.758240 323.471802,597.162415 
	C321.049011,596.472778 319.122864,596.535645 318.399628,599.354675 
	C316.359192,607.307922 315.584900,616.914978 326.346558,621.017456 
	C341.431732,626.768188 356.254974,633.207703 371.176147,639.386658 
	C394.252655,648.942810 417.316193,658.530212 440.388672,668.096130 
	C442.499512,668.971252 444.522339,670.320862 446.646484,667.817322 
	C454.295593,658.801819 462.059326,649.883667 469.741638,640.896179 
	C470.108887,640.466492 470.112579,639.726074 470.414032,638.687988 
	C430.646454,627.420410 391.147675,616.229004 350.880920,604.770569 
M524.749268,763.705566 
	C534.414246,763.705994 544.079285,763.683655 553.744202,763.714355 
	C560.895569,763.737061 562.157104,764.539795 563.945435,771.296082 
	C564.624512,773.861816 565.695618,774.888306 568.331543,774.879944 
	C601.658386,774.774475 634.985535,774.709045 668.312561,774.721313 
	C671.561523,774.722473 672.626465,773.370728 672.834351,770.277039 
	C673.168396,765.305664 673.903381,760.360107 674.509277,755.408569 
	C675.167603,750.028381 674.594788,749.283081 669.127319,749.354614 
	C646.971741,749.644531 624.817688,750.124512 602.661377,750.276184 
	C576.500671,750.455261 550.337952,750.421326 524.176575,750.338745 
	C520.203674,750.326233 518.631958,751.925232 519.112549,755.687195 
	C519.535217,758.995789 517.014404,764.119934 524.749268,763.705566 
M362.654175,774.700745 
	C394.126129,774.728394 425.598145,774.746399 457.070038,774.798950 
	C460.175537,774.804138 463.184113,775.031616 463.661102,770.710938 
	C464.254486,765.336060 467.700684,763.601379 472.745209,763.666809 
	C482.401611,763.791992 492.071289,763.434814 501.714630,763.811035 
	C506.752106,764.007507 507.852112,762.085144 507.803772,757.471619 
	C507.757385,753.044617 507.030609,750.879272 501.848816,750.919983 
	C453.729126,751.298096 405.615417,750.445435 357.501892,749.794678 
	C354.075562,749.748291 352.988068,750.908691 353.367218,754.113464 
	C353.952667,759.061707 354.806641,764.018372 354.857178,768.978455 
	C354.908600,774.025635 357.297424,775.340698 362.654175,774.700745 
M606.703796,645.580139 
	C613.763611,643.412964 617.480042,638.350464 616.568054,632.143127 
	C615.584839,625.450928 611.362610,622.198242 603.386230,622.171631 
	C589.417114,622.125122 575.447571,622.172241 561.478394,622.135925 
	C558.242004,622.127502 555.132812,622.407288 552.676514,624.820801 
	C549.104126,628.330994 547.297363,632.340576 549.120605,637.410278 
	C550.987488,642.601135 554.933044,645.584351 560.941711,645.627441 
	C575.907837,645.734802 590.875366,645.653442 606.703796,645.580139 
M655.098816,611.713135 
	C645.372559,614.831726 635.358093,617.090698 625.974365,620.859985 
	C626.383057,625.306091 629.005249,625.652649 632.108032,625.607056 
	C648.579895,625.364990 665.055847,624.938171 681.523926,625.130859 
	C688.573120,625.213318 694.917664,623.812012 701.172729,620.723755 
	C709.768738,616.479797 712.043823,612.129211 709.857788,602.705017 
	C708.433655,596.565308 707.658752,596.065674 701.757202,597.813171 
	C686.455200,602.344055 671.164124,606.911682 655.098816,611.713135 
M296.017395,720.579224 
	C301.070984,717.484131 304.867188,713.103027 308.485474,708.513977 
	C310.754639,705.635925 310.581543,703.808044 306.960449,702.086670 
	C298.107605,697.878418 289.432831,693.296814 280.650909,688.936829 
	C279.109772,688.171692 277.786987,686.589172 275.452515,687.259888 
	C274.801636,690.089478 273.955170,692.959229 273.514008,695.889954 
	C272.946960,699.656921 272.385376,703.472412 272.378632,707.267944 
	C272.348907,724.005188 280.774445,728.968933 296.017395,720.579224 
M734.492188,722.070312 
	C736.497803,722.853882 738.448303,723.854919 740.519470,724.379333 
	C746.194153,725.815979 750.574097,724.246887 752.591431,719.260559 
	C756.975403,708.424622 755.024780,697.713928 751.511597,686.510620 
	C739.640564,692.619629 728.500977,698.352295 716.778198,704.385010 
	C721.117615,711.984314 726.472229,717.797607 734.492188,722.070312 
M574.048584,657.451172 
	C572.200378,658.329407 573.325562,659.346985 574.014893,660.174438 
	C576.252014,662.859619 578.652100,665.412170 580.827637,668.144592 
	C582.821716,670.649231 584.956299,670.902405 587.822449,669.613525 
	C595.561523,666.133423 603.415100,662.909119 611.191711,659.511047 
	C624.517578,653.688049 637.819336,647.809937 651.131226,641.954956 
	C644.204407,641.302917 637.423035,641.359741 630.643494,641.272339 
	C628.246826,641.241516 627.167358,642.484131 626.164368,644.455017 
	C621.618713,653.387390 614.038330,657.295959 604.220581,657.311829 
	C594.398376,657.327637 584.576111,657.345764 574.048584,657.451172 
M583.469788,786.660095 
	C583.102173,787.176758 582.368469,787.734924 582.421570,788.203857 
	C583.297424,795.934326 585.824097,803.000488 591.325745,808.706421 
	C593.288269,810.741821 595.635010,810.839966 598.116699,809.403503 
	C606.844849,804.351196 609.725037,795.607727 613.671814,786.424622 
	C603.091309,786.424622 593.679382,786.424622 583.469788,786.660095 
M420.113800,801.365906 
	C421.320831,802.953674 422.386047,804.677917 423.759888,806.105164 
	C429.209167,811.765747 434.313385,811.221863 438.341583,804.549805 
	C440.948090,800.232605 442.443207,795.452209 443.534973,790.565125 
	C443.939850,788.752808 444.093414,786.512329 441.379333,786.476013 
	C432.304047,786.354736 423.226105,786.430115 413.729767,786.430115 
	C414.925690,792.092651 417.289551,796.440369 420.113800,801.365906 
M734.667542,617.811096 
	C736.469604,619.149170 737.573730,621.684875 740.283508,621.476257 
	C745.140686,621.102417 755.417542,610.719543 756.328247,605.206787 
	C745.177612,604.316650 733.858948,606.347534 722.970520,602.723633 
	C721.548645,606.723694 722.598999,609.115967 725.803955,611.073608 
	C728.755676,612.876648 731.373962,615.225647 734.667542,617.811096 
z"/>
<path fill="#000000" opacity="1.000000" stroke="none" 
	d="
M421.696320,868.491760 
	C421.695618,858.903137 421.806915,849.741089 421.634552,840.584351 
	C421.564850,836.882812 422.992096,835.381226 426.618103,835.678955 
	C428.272766,835.814819 429.947296,835.742554 431.612000,835.715515 
	C434.024933,835.676331 435.318024,836.645508 435.313202,839.244507 
	C435.278900,857.730469 435.278564,876.216553 435.311523,894.702515 
	C435.316040,897.235657 434.157318,898.106201 431.703186,898.360046 
	C425.473694,899.004150 420.820282,897.777283 417.115662,891.730408 
	C410.088776,880.260803 402.086853,869.388611 394.432312,858.183838 
	C392.679016,859.359680 393.477783,860.814697 393.465057,861.937866 
	C393.346436,872.428772 393.238312,882.922729 393.383484,893.412231 
	C393.434143,897.075134 392.172180,898.703918 388.482941,898.329712 
	C387.493805,898.229370 386.473969,898.213135 385.488708,898.330444 
	C381.102783,898.852661 379.684113,896.912964 379.730286,892.589844 
	C379.913513,875.437744 379.908295,858.281799 379.754364,841.129272 
	C379.717468,837.015808 381.202087,835.941833 385.232147,835.523987 
	C391.632446,834.860413 395.473785,837.649658 398.885468,842.499146 
	C406.144653,852.817749 413.661560,862.955017 421.151245,873.274658 
	C422.126984,871.836304 421.420532,870.311951 421.696320,868.491760 
z"/>
<path fill="#000000" opacity="1.000000" stroke="none" 
	d="
M270.694946,849.022888 
	C271.075653,834.731140 267.703522,836.380554 283.992920,834.837708 
	C290.453339,834.225769 296.982758,834.488159 303.293488,836.414429 
	C315.799622,840.231628 319.492737,852.671570 311.137787,862.739136 
	C310.720459,863.242126 310.354523,863.787842 309.731415,864.628113 
	C316.524048,869.639099 319.556030,876.093506 317.498810,884.518250 
	C315.445251,892.927795 308.531433,898.251892 297.168427,899.142944 
	C290.223511,899.687561 283.235352,899.644714 276.260651,898.453369 
	C271.937561,897.714966 270.526337,895.840271 270.603943,891.481750 
	C270.852844,877.497742 270.695587,863.506531 270.694946,849.022888 
M296.494476,887.191467 
	C300.087677,886.354980 303.203247,884.928589 303.780182,880.741455 
	C304.210846,877.615784 303.852051,874.687561 300.794952,872.879150 
	C296.173370,870.145264 291.140198,870.949280 286.184448,871.344238 
	C285.089386,871.431396 284.676270,872.425659 284.380005,873.463989 
	C281.310211,884.221436 284.606384,888.293884 296.494476,887.191467 
M289.616180,859.668823 
	C291.436401,859.649475 293.284882,859.826904 295.070953,859.570068 
	C298.859436,859.025330 301.668060,857.239197 301.745789,852.942200 
	C301.820709,848.800781 299.027527,847.143372 295.535614,846.417664 
	C285.874664,844.409973 283.970123,846.098816 284.211273,855.519653 
	C284.297546,858.890747 285.682770,859.963440 289.616180,859.668823 
z"/>
<path fill="#000000" opacity="1.000000" stroke="none" 
	d="
M556.524170,884.515808 
	C558.892090,889.038513 562.331421,892.583130 563.740234,897.610657 
	C559.226135,898.890259 554.948120,898.209167 550.718506,898.181213 
	C548.732849,898.168091 547.992065,896.495850 547.114624,895.100037 
	C544.015442,890.169800 540.937805,885.226013 537.844788,880.291992 
	C536.782654,878.597656 535.777344,876.778076 533.786316,876.040344 
	C530.794678,874.931824 528.436096,875.118042 528.435059,879.205627 
	C528.433777,884.031738 528.285278,888.861694 528.434387,893.682739 
	C528.539368,897.078552 527.283142,898.674011 523.786072,898.328308 
	C522.467407,898.197998 521.113098,898.184998 519.796387,898.322632 
	C515.800659,898.740540 514.645203,896.873352 514.677185,893.063416 
	C514.819641,876.089539 514.836914,859.112854 514.675964,842.139343 
	C514.634644,837.783264 516.105835,835.971985 520.575562,835.484131 
	C529.080200,834.555969 537.480042,834.221008 545.838318,836.348755 
	C554.159851,838.467102 559.757629,843.021057 560.704163,852.204285 
	C561.568359,860.588318 559.208435,867.270142 551.698792,871.688599 
	C551.138123,872.018494 550.655579,872.481262 549.939941,873.034241 
	C551.355042,877.208252 554.414917,880.395447 556.524170,884.515808 
M532.708923,863.929443 
	C535.843567,863.794495 539.032654,864.069336 541.985962,862.620544 
	C546.630432,860.341858 548.266541,855.096008 545.629395,850.895020 
	C543.558716,847.596436 533.460022,844.942200 530.113403,846.794434 
	C529.151428,847.326843 528.568237,848.154846 528.553772,849.174255 
	C528.494934,853.316284 528.442688,857.463074 528.584595,861.601318 
	C528.649902,863.505310 530.250183,863.846924 532.708923,863.929443 
z"/>
<path fill="#000000" opacity="1.000000" stroke="none" 
	d="
M686.983398,897.775696 
	C681.990173,891.487061 677.424561,885.354736 672.682434,879.362000 
	C670.647766,876.790833 668.390198,874.339478 664.720581,872.363953 
	C663.764038,878.649658 664.341248,884.403137 664.257812,890.108276 
	C664.148376,897.597595 659.075806,900.954834 652.088623,898.072815 
	C650.116272,897.259338 650.066895,895.540649 650.065430,893.914185 
	C650.049377,875.940552 650.098206,857.966919 650.102661,839.993286 
	C650.103455,836.869507 651.480347,835.398987 654.684570,835.678040 
	C656.171082,835.807495 657.687866,835.806824 659.174255,835.675842 
	C662.816223,835.354980 664.309631,836.934204 664.220703,840.584961 
	C664.075806,846.529785 664.181580,852.480713 664.181580,860.012085 
	C668.470703,855.283813 671.752075,851.688538 675.007202,848.069641 
	C676.898743,845.966675 679.111389,844.045166 680.550110,841.662109 
	C685.410461,833.611572 692.762817,835.672058 699.955444,836.028809 
	C700.134216,839.018005 698.131226,840.299561 696.806152,841.857117 
	C691.633301,847.938293 686.448303,854.016418 681.049866,859.895569 
	C678.282532,862.909485 678.130432,865.166016 681.025024,868.345215 
	C688.208191,876.234436 693.987610,885.222656 700.032959,893.987915 
	C700.677612,894.922607 701.505310,895.830994 701.162476,897.856201 
	C696.712280,898.695618 692.030701,898.419739 686.983398,897.775696 
z"/>
<path fill="#000000" opacity="1.000000" stroke="none" 
	d="
M495.764862,868.326660 
	C499.398376,878.155457 502.879761,887.626587 506.463806,897.377136 
	C501.747040,898.937683 497.614258,898.374878 493.560394,898.100586 
	C491.085358,897.933105 490.890015,895.414062 490.209442,893.614624 
	C486.696960,884.326904 486.716278,884.319641 476.644165,884.311279 
	C476.311096,884.310974 475.970917,884.355408 475.645996,884.303711 
	C466.732361,882.885620 459.978271,884.673584 458.794250,895.261841 
	C458.536163,897.569763 456.777222,898.533691 454.424713,898.333740 
	C451.156586,898.055969 447.790497,898.938843 444.704224,897.668884 
	C443.916809,896.133301 444.566284,894.877502 445.028107,893.665283 
	C451.780518,875.941345 457.980347,858.013977 465.608582,840.612183 
	C468.149261,834.816284 472.300995,835.973145 476.638794,835.623962 
	C480.748016,835.293335 483.080872,836.786560 484.569092,840.671753 
	C488.079529,849.836243 491.911072,858.877747 495.764862,868.326660 
M472.893738,855.578369 
	C470.916260,860.942383 468.437042,866.153503 467.068909,872.270386 
	C472.595581,872.863953 477.276245,872.838135 482.573456,872.335388 
	C480.523193,864.942444 478.199524,858.418701 474.921509,851.476929 
	C474.067505,853.175476 473.622314,854.060974 472.893738,855.578369 
z"/>
<path fill="#000000" opacity="1.000000" stroke="none" 
	d="
M594.961792,860.000000 
	C594.976074,853.346802 595.008728,847.193420 594.996521,841.040222 
	C594.991394,838.454651 595.691223,836.358093 598.596680,835.934082 
	C608.356079,834.509827 618.130615,833.783325 627.760620,836.671448 
	C637.525818,839.600220 641.420349,845.275024 641.346130,856.042175 
	C641.279114,865.775635 636.518860,872.216492 627.434875,874.923889 
	C623.244934,876.172607 618.948242,876.458984 614.614807,876.471008 
	C610.808716,876.481567 608.754395,877.952026 609.073303,882.187439 
	C609.359680,885.990967 609.047302,889.835510 609.161255,893.657104 
	C609.261841,897.029175 607.863586,898.305603 604.426941,898.380249 
	C594.922546,898.586670 594.928467,898.714539 594.939209,889.437561 
	C594.950378,879.791687 594.954651,870.145874 594.961792,860.000000 
M627.187805,852.460754 
	C626.813660,851.723145 626.565308,850.878540 626.044128,850.265991 
	C623.390564,847.147522 614.883118,844.803955 611.219238,846.618164 
	C607.250732,848.583191 609.722656,852.552979 609.205872,855.588257 
	C608.876770,857.521118 609.164856,859.563171 609.215576,861.555237 
	C609.250854,862.940979 609.573120,864.098877 611.103577,864.704529 
	C619.089966,867.864685 627.877686,861.688904 627.187805,852.460754 
z"/>
<path fill="#000000" opacity="1.000000" stroke="none" 
	d="
M752.463562,842.668091 
	C762.446289,858.460876 753.899536,874.913574 735.408325,876.288574 
	C731.631042,876.569397 726.844360,875.062683 724.352417,877.626343 
	C721.799744,880.252319 724.454651,884.933167 723.887634,888.698303 
	C723.838562,889.024170 723.879578,889.363708 723.879150,889.696899 
	C723.868835,898.224915 721.088623,900.259888 712.559326,898.237854 
	C709.522339,897.517883 709.837585,895.257080 709.830627,893.157410 
	C709.784180,879.163147 709.795654,865.168762 709.790527,851.174377 
	C709.789185,847.675903 709.854309,844.176086 709.778687,840.679321 
	C709.723816,838.143250 710.743713,836.368469 713.265991,835.993958 
	C723.703247,834.444336 734.138062,833.663269 744.382324,837.194946 
	C747.426697,838.244507 750.043640,839.994019 752.463562,842.668091 
M741.080688,860.486328 
	C743.199219,856.583008 743.159546,852.803040 740.092712,849.435486 
	C737.719360,846.829346 729.055603,845.268677 725.875854,846.588562 
	C724.601562,847.117493 724.101074,848.069092 724.090332,849.300293 
	C724.054138,853.452454 724.049622,857.605530 724.099487,861.757446 
	C724.119690,863.438232 724.883667,864.739441 726.726929,864.769104 
	C731.696960,864.849243 736.796448,865.296204 741.080688,860.486328 
z"/>
<path fill="#000000" opacity="1.000000" stroke="none" 
	d="
M327.818909,878.999390 
	C327.816986,866.173279 327.939178,853.845032 327.745056,841.521851 
	C327.679352,837.351196 328.782104,835.474915 333.343201,835.601929 
	C343.163330,835.875366 353.002045,835.888123 362.821503,835.604126 
	C367.743805,835.461670 368.044800,838.140259 368.169525,841.868408 
	C368.305420,845.931396 366.876862,847.581238 362.684662,847.383728 
	C357.034149,847.117371 351.358032,847.447876 345.698517,847.303650 
	C340.051544,847.159729 341.604492,851.251038 341.363739,854.301392 
	C341.120361,857.384460 341.310028,859.956665 345.634735,859.743958 
	C350.619324,859.498657 355.630493,859.837891 360.621704,859.671143 
	C364.772552,859.532654 365.174072,862.039917 365.071686,865.179443 
	C364.973816,868.180908 365.487885,871.449585 360.768646,871.328552 
	C355.775085,871.200500 350.772430,871.423645 345.779175,871.289795 
	C342.577454,871.203857 341.308380,872.456177 341.339417,875.692078 
	C341.453339,887.567932 340.313782,885.856628 351.308685,886.039307 
	C355.804993,886.114014 360.304901,886.178040 364.799652,886.081787 
	C370.146484,885.967285 369.205658,889.734985 369.337494,892.999634 
	C369.466919,896.205627 369.034760,898.444397 364.885468,898.373291 
	C354.061554,898.187988 343.231506,898.232056 332.405792,898.354309 
	C328.848175,898.394470 327.713226,896.758057 327.786774,893.490723 
	C327.891663,888.829041 327.817169,884.163269 327.818909,878.999390 
z"/>
<path fill="#000000" opacity="1.000000" stroke="none" 
	d="
M531.727905,577.948914 
	C500.637268,589.292236 467.916687,570.160095 461.708740,537.432129 
	C460.864624,532.982239 460.514069,528.533630 460.703522,524.028625 
	C461.013519,516.656067 465.909058,512.186829 473.245789,513.108337 
	C499.322174,516.383423 525.358704,515.864807 551.415649,512.885010 
	C561.113586,511.775940 566.279236,516.636536 566.244873,526.339966 
	C566.165588,548.726013 552.534241,569.259888 531.727905,577.948914 
M544.047974,554.861633 
	C545.022461,551.624939 542.120300,551.346680 540.433472,550.517517 
	C527.261047,544.042664 513.506653,542.597473 499.236084,546.102112 
	C493.277344,547.565491 487.589630,549.579895 482.694885,553.387817 
	C492.940277,571.099060 524.324097,578.115295 544.047974,554.861633 
z"/>
<path fill="#000000" opacity="1.000000" stroke="none" 
	d="
M579.982910,507.332214 
	C555.844055,494.587982 552.752686,457.909729 574.082947,441.511902 
	C587.285583,431.362305 604.914856,434.069031 615.074890,447.805603 
	C625.449646,461.832489 625.494629,482.831604 615.180054,496.914703 
	C606.654297,508.555420 593.963989,512.400024 579.982910,507.332214 
M595.168213,455.818024 
	C593.497009,459.214783 594.029358,462.309509 596.790161,464.809967 
	C598.888550,466.710449 601.435791,467.367554 604.129578,465.958862 
	C606.768311,464.578949 608.695007,462.606140 608.616943,459.387177 
	C608.546692,456.487946 607.149536,454.353058 604.496826,453.128265 
	C601.009338,451.518127 598.077637,452.440582 595.168213,455.818024 
z"/>
<path fill="#000000" opacity="1.000000" stroke="none" 
	d="
M411.726440,497.153809 
	C401.772217,481.237152 401.414429,465.299225 411.168671,449.785492 
	C423.242950,430.581879 448.051575,430.791473 460.462097,449.781616 
	C469.838898,464.129547 469.160461,483.898285 458.845367,497.630096 
	C447.228302,513.095215 424.914856,514.720032 411.726440,497.153809 
M445.568604,466.618011 
	C449.364349,466.435883 451.825256,464.477112 452.552551,460.794525 
	C453.186798,457.583130 452.033447,454.907593 449.055206,453.269775 
	C446.298035,451.753571 443.589874,452.092041 441.161285,453.957367 
	C439.055267,455.574890 438.040771,457.843079 438.473206,460.505829 
	C439.050812,464.062103 441.451538,465.861725 445.568604,466.618011 
z"/>
<path fill="#000000" opacity="1.000000" stroke="none" 
	d="
M518.051147,686.100464 
	C518.739075,682.345642 520.379517,679.773987 524.012146,679.238281 
	C526.820190,678.824158 529.316650,679.695984 530.950928,682.154358 
	C532.663391,684.730286 532.799561,687.440918 531.057251,690.088989 
	C529.444824,692.539551 527.087463,693.625610 524.221375,693.205200 
	C520.425964,692.648376 518.485474,690.209290 518.051147,686.100464 
z"/>
<path fill="#000000" opacity="1.000000" stroke="none" 
	d="
M532.194580,717.744446 
	C529.658264,723.246948 526.345642,724.990784 522.467102,723.242554 
	C518.837036,721.606323 517.292908,717.818726 518.775085,714.073364 
	C520.045105,710.864197 522.524475,709.379883 525.867920,709.796570 
	C530.181274,710.334106 532.200439,713.065613 532.194580,717.744446 
z"/>
<path fill="#000000" opacity="1.000000" stroke="none" 
	d="
M360.074585,674.709656 
	C362.726562,673.449402 365.169891,672.978577 367.690613,672.970520 
	C376.182587,672.943542 384.678894,672.787354 393.165649,672.997986 
	C402.413269,673.227600 407.181976,678.268616 407.246796,687.495605 
	C407.305237,695.820862 407.321075,704.147156 407.261566,712.472290 
	C407.197937,721.371338 402.925751,726.332764 394.063934,726.751587 
	C384.761017,727.191223 375.409637,727.184021 366.103302,726.796997 
	C357.928070,726.457092 353.311707,721.570129 353.026764,713.281555 
	C352.717957,704.300171 352.809631,695.299377 352.949982,686.310547 
	C353.027618,681.337280 355.132324,677.306580 360.074585,674.709656 
M362.895569,720.919678 
	C372.971680,722.677795 383.126007,721.413269 393.240723,721.637024 
	C399.120331,721.767151 401.780273,718.993652 401.862396,713.097778 
	C401.985199,704.277710 401.953369,695.453674 401.853790,686.632874 
	C401.790588,681.035217 399.221985,678.401917 393.565277,678.316772 
	C384.578949,678.181458 375.587799,678.197083 366.601013,678.319275 
	C361.036163,678.394897 358.332397,681.110413 358.262512,686.652283 
	C358.151276,695.472900 358.283813,704.296387 358.204651,713.117676 
	C358.175171,716.402771 359.209595,718.966492 362.895569,720.919678 
z"/>
<path fill="#000000" opacity="1.000000" stroke="none" 
	d="
M374.014313,712.021240 
	C373.001343,713.227966 372.413147,715.273193 370.251740,714.491882 
	C368.391663,713.819519 368.657257,712.145081 369.085114,710.674744 
	C369.525940,709.159790 368.883179,708.218811 367.889343,707.178101 
	C364.471680,703.599121 364.255524,699.106201 364.758209,694.571594 
	C365.179077,690.774963 370.176300,687.704773 373.685730,689.121338 
	C374.861176,686.007141 376.400848,682.468262 380.504272,683.949890 
	C386.504364,686.116455 384.177673,691.841064 384.731689,696.668823 
	C386.256073,694.283813 385.361481,692.048096 385.731873,689.978333 
	C385.999146,688.484741 386.585724,687.379883 388.356506,687.896545 
	C392.826660,689.200806 395.820221,693.741150 395.214752,698.538818 
	C394.815674,701.700867 393.948792,704.806458 391.235107,706.830322 
	C390.052765,707.712158 389.368500,708.487854 389.498901,710.044189 
	C389.847168,714.200562 386.924530,715.767395 383.658325,716.066406 
	C380.141388,716.388428 375.782654,717.970581 374.292053,712.181091 
	C377.628235,709.774475 381.408875,713.865845 384.293304,710.294739 
	C383.879242,708.532043 383.249451,706.946106 381.478638,706.035278 
	C378.371399,707.355835 375.182800,708.413879 374.014313,712.021240 
z"/>
</svg>