<svg version="1.1" id="Layer_1" xmlns="http://www.w3.org/2000/svg" xmlns:xlink="http://www.w3.org/1999/xlink" x="0px" y="0px"
	 width="100%" viewBox="0 0 1323 1030" enable-background="new 0 0 1323 1030" xml:space="preserve">
<path fill="#FEFEFE" opacity="1.000000" stroke="none" 
	d="
M1324.000000,372.000000 
	C1324.000000,592.000000 1324.000000,811.500000 1324.000000,1031.000000 
	C883.000000,1031.000000 442.000000,1031.000000 1.000000,1031.000000 
	C1.000000,687.666687 1.000000,344.333344 1.000000,1.000000 
	C442.000000,1.000000 883.000000,1.000000 1324.000000,1.000000 
	C1324.000000,124.500000 1324.000000,248.000000 1324.000000,372.000000 
M159.282654,648.518005 
	C160.815811,648.591736 162.348984,648.665405 164.391098,648.763611 
	C159.521515,659.368896 154.940704,669.310059 150.389099,679.264587 
	C137.666977,707.088196 124.940186,734.909729 112.256142,762.750671 
	C109.690941,768.381165 110.734627,773.696289 114.894371,777.312317 
	C118.921295,780.812866 123.920982,781.027100 129.222061,777.890564 
	C130.366806,777.213196 131.462601,776.450806 132.563339,775.701721 
	C193.390045,734.307251 254.197601,692.884644 315.103607,651.607239 
	C317.518646,649.970520 320.865051,648.942200 323.783325,648.929199 
	C364.446808,648.747742 405.111298,648.790894 445.775543,648.792114 
	C447.231537,648.792175 448.687561,648.924438 450.497223,649.012268 
	C450.497223,650.761414 450.495819,652.224670 450.497467,653.687927 
	C450.574707,722.350403 450.656189,791.012817 450.725464,859.675293 
	C450.736053,870.164734 454.410797,873.919922 464.699860,873.920044 
	C642.855896,873.921997 821.011963,873.918457 999.167969,874.034302 
	C1001.771790,874.036011 1004.750732,874.977173 1006.919128,876.429016 
	C1026.139526,889.297791 1045.213745,902.384521 1064.335571,915.400391 
	C1106.431152,944.053955 1148.525757,972.708984 1190.630127,1001.349487 
	C1197.181641,1005.805969 1202.465820,1006.013123 1207.114746,1002.110352 
	C1211.565186,998.374512 1212.608398,992.104858 1209.868896,986.144104 
	C1193.206299,949.889587 1176.560791,913.627441 1159.926270,877.360107 
	C1159.469971,876.365234 1159.202759,875.283569 1158.733643,873.909363 
	C1160.822876,873.909363 1162.478760,873.908630 1164.134521,873.909424 
	C1190.966187,873.922791 1217.797974,873.942749 1244.629639,873.946411 
	C1254.455566,873.947754 1258.831665,869.530090 1258.828491,859.550354 
	C1258.769165,677.227966 1258.704346,494.905579 1258.625488,312.583191 
	C1258.619995,299.931152 1255.248047,296.584320 1242.618286,296.580963 
	C1120.958984,296.548523 999.299744,296.527771 877.640442,296.503754 
	C875.549866,296.503357 873.459290,296.503693 871.068176,296.503693 
	C871.068176,294.198761 871.068665,292.557037 871.068176,290.915314 
	C871.044861,219.586212 871.025513,148.257126 870.993347,76.928032 
	C870.989014,67.254944 867.046814,63.327805 857.357483,63.327923 
	C597.039734,63.331154 336.721924,63.338650 76.404152,63.352982 
	C67.236908,63.353489 63.068699,67.555779 63.068821,76.832520 
	C63.071293,262.654785 63.082191,448.477051 63.104801,634.299316 
	C63.106033,644.435608 67.296028,648.636047 77.331894,648.629211 
	C104.330231,648.610840 131.328552,648.559265 159.282654,648.518005 
z"/>
<path fill="#040404" opacity="1.000000" stroke="none" 
	d="
M158.804764,648.519409 
	C131.328552,648.559265 104.330231,648.610840 77.331894,648.629211 
	C67.296028,648.636047 63.106033,644.435608 63.104801,634.299316 
	C63.082191,448.477051 63.071293,262.654785 63.068821,76.832520 
	C63.068699,67.555779 67.236908,63.353489 76.404152,63.352982 
	C336.721924,63.338650 597.039734,63.331154 857.357483,63.327923 
	C867.046814,63.327805 870.989014,67.254944 870.993347,76.928032 
	C871.025513,148.257126 871.044861,219.586212 871.068176,290.915314 
	C871.068665,292.557037 871.068176,294.198761 871.068176,296.503693 
	C873.459290,296.503693 875.549866,296.503357 877.640442,296.503754 
	C999.299744,296.527771 1120.958984,296.548523 1242.618286,296.580963 
	C1255.248047,296.584320 1258.619995,299.931152 1258.625488,312.583191 
	C1258.704346,494.905579 1258.769165,677.227966 1258.828491,859.550354 
	C1258.831665,869.530090 1254.455566,873.947754 1244.629639,873.946411 
	C1217.797974,873.942749 1190.966187,873.922791 1164.134521,873.909424 
	C1162.478760,873.908630 1160.822876,873.909363 1158.733643,873.909363 
	C1159.202759,875.283569 1159.469971,876.365234 1159.926270,877.360107 
	C1176.560791,913.627441 1193.206299,949.889587 1209.868896,986.144104 
	C1212.608398,992.104858 1211.565186,998.374512 1207.114746,1002.110352 
	C1202.465820,1006.013123 1197.181641,1005.805969 1190.630127,1001.349487 
	C1148.525757,972.708984 1106.431152,944.053955 1064.335571,915.400391 
	C1045.213745,902.384521 1026.139526,889.297791 1006.919128,876.429016 
	C1004.750732,874.977173 1001.771790,874.036011 999.167969,874.034302 
	C821.011963,873.918457 642.855896,873.921997 464.699860,873.920044 
	C454.410797,873.919922 450.736053,870.164734 450.725464,859.675293 
	C450.656189,791.012817 450.574707,722.350403 450.497467,653.687927 
	C450.495819,652.224670 450.497223,650.761414 450.497223,649.012268 
	C448.687561,648.924438 447.231537,648.792175 445.775543,648.792114 
	C405.111298,648.790894 364.446808,648.747742 323.783325,648.929199 
	C320.865051,648.942200 317.518646,649.970520 315.103607,651.607239 
	C254.197601,692.884644 193.390045,734.307251 132.563339,775.701721 
	C131.462601,776.450806 130.366806,777.213196 129.222061,777.890564 
	C123.920982,781.027100 118.921295,780.812866 114.894371,777.312317 
	C110.734627,773.696289 109.690941,768.381165 112.256142,762.750671 
	C124.940186,734.909729 137.666977,707.088196 150.389099,679.264587 
	C154.940704,669.310059 159.521515,659.368896 164.391098,648.763611 
	C162.348984,648.665405 160.815811,648.591736 158.804764,648.519409 
M1171.076416,959.972656 
	C1171.170288,959.529968 1171.264160,959.087280 1171.209351,957.948303 
	C1157.824097,928.437805 1144.728516,898.790466 1130.898438,869.489929 
	C1125.962646,859.032959 1132.096802,850.400818 1143.204346,850.634766 
	C1172.188477,851.245300 1201.193970,850.845154 1230.190918,850.848145 
	C1231.981812,850.848267 1233.772705,850.848145 1235.807617,850.848145 
	C1235.807617,673.358337 1235.807617,496.303711 1235.807617,319.123016 
	C981.579224,319.123016 727.565186,319.123016 473.525818,319.123016 
	C473.525818,386.879028 473.525818,454.297546 473.525818,521.771240 
	C500.236969,521.771240 526.639771,521.771240 553.233826,521.771240 
	C553.233826,519.817688 553.233337,518.166626 553.233948,516.515564 
	C553.246643,482.519165 553.240662,448.522705 553.283875,414.526337 
	C553.296631,404.501587 557.930420,399.884308 567.979736,399.883575 
	C759.126404,399.869690 950.273132,399.868988 1141.419800,399.880432 
	C1151.342163,399.881042 1155.752319,404.286255 1155.751953,414.215149 
	C1155.748169,527.869812 1155.728638,641.524414 1155.692383,755.179077 
	C1155.688843,766.413086 1151.942871,770.074158 1140.683960,770.074219 
	C1010.530884,770.074829 880.377869,770.073303 750.224792,770.070496 
	C689.064514,770.069214 627.904297,770.068970 566.744019,770.054443 
	C558.757141,770.052551 554.403137,766.186218 553.475586,758.257202 
	C553.244263,756.279785 553.281067,754.265137 553.279846,752.267517 
	C553.259827,719.604248 553.253357,686.941040 553.244141,654.277771 
	C553.243652,652.518982 553.244141,650.760132 553.244141,649.180725 
	C526.215637,649.180725 499.838959,649.180725 473.667725,649.180725 
	C473.667725,716.626953 473.667725,783.667603 473.667725,850.864868 
	C475.273590,850.864868 476.434937,850.864868 477.596252,850.864868 
	C652.577942,850.863281 827.559570,850.874268 1002.541260,850.795654 
	C1007.416077,850.793457 1011.584473,851.875122 1015.619568,854.645203 
	C1037.989746,870.002197 1060.439331,885.243591 1082.897095,900.472656 
	C1112.099731,920.275391 1141.335449,940.029419 1171.076416,959.972656 
M151.803482,735.001831 
	C201.792374,701.074524 251.844543,667.239563 301.700745,633.118347 
	C309.017517,628.110779 316.306641,625.707764 325.300903,625.718811 
	C497.456482,625.930298 669.612366,625.872620 841.768188,625.870605 
	C843.872375,625.870605 845.976501,625.870605 848.064026,625.870605 
	C848.064026,557.813843 848.064026,490.394623 848.064026,422.847229 
	C821.357056,422.847229 794.945496,422.847229 768.121460,422.847229 
	C768.121460,424.739136 768.120667,426.371185 768.121582,428.003265 
	C768.131531,447.002075 768.138245,466.000854 768.153076,484.999664 
	C768.165466,500.831970 768.237427,516.664429 768.182129,532.496521 
	C768.157227,539.633728 764.969482,543.331116 757.948914,544.291504 
	C754.666260,544.740601 751.305176,544.732422 747.979614,544.733276 
	C637.319946,544.760925 526.660278,544.768738 416.000580,544.770264 
	C338.172180,544.771423 260.343781,544.768311 182.515381,544.744202 
	C170.031693,544.740295 166.032166,540.688782 166.031570,528.315247 
	C166.026291,420.155426 166.017822,311.995605 166.011673,203.835770 
	C166.011200,195.502960 165.956390,187.169479 166.045517,178.837570 
	C166.124435,171.460907 170.452408,167.152084 177.861771,166.880844 
	C179.359863,166.826004 180.861237,166.854797 182.361099,166.854721 
	C372.849060,166.844818 563.336975,166.835571 753.824951,166.827408 
	C764.155396,166.826965 768.047974,170.662445 768.058167,180.937637 
	C768.094666,217.601959 768.111145,254.266281 768.135010,290.930603 
	C768.136169,292.669098 768.135132,294.407562 768.135132,296.098419 
	C795.284180,296.098419 821.680176,296.098419 848.106445,296.098419 
	C848.106445,225.958618 848.106445,156.212601 848.106445,86.336975 
	C593.939575,86.336975 340.045135,86.336975 86.267838,86.336975 
	C86.267838,266.311157 86.267838,446.004120 86.267838,625.836121 
	C88.379013,625.836121 90.035332,625.834656 91.691650,625.836243 
	C121.689690,625.865112 151.687805,625.864197 181.685730,625.942017 
	C190.453842,625.964722 195.406494,632.723328 192.863800,641.115234 
	C192.242661,643.165222 191.148865,645.073975 190.250778,647.037781 
	C176.911057,676.207092 163.567719,705.374878 149.939590,735.039612 
	C150.030228,735.290344 150.120850,735.541138 150.211487,735.791870 
	C150.516998,735.571838 150.822510,735.351807 151.803482,735.001831 
M731.489441,189.274765 
	C550.731567,189.274765 369.973663,189.274765 189.292221,189.274765 
	C189.292221,300.552582 189.292221,411.253662 189.292221,521.764893 
	C276.628082,521.764893 363.542206,521.764893 450.774384,521.764893 
	C450.774384,519.985779 450.775482,518.514587 450.774261,517.043396 
	C450.724823,458.051086 450.672363,399.058777 450.628143,340.066467 
	C450.620148,329.401184 450.553253,318.734711 450.689117,308.071045 
	C450.778046,301.090149 454.867706,297.018738 461.835052,296.581970 
	C463.163696,296.498749 464.500397,296.532654 465.833374,296.532379 
	C555.988403,296.513824 646.143494,296.497253 736.298523,296.480652 
	C739.091003,296.480133 741.883423,296.480591 744.811401,296.480591 
	C744.811401,260.550842 744.811401,225.029312 744.811401,189.274796 
	C740.445190,189.274796 736.465027,189.274796 731.489441,189.274765 
M624.499573,747.553894 
	C793.769287,747.553894 963.039062,747.553894 1132.551270,747.553894 
	C1132.551270,638.950012 1132.551270,530.867859 1132.551270,422.863464 
	C1045.336426,422.863464 958.302368,422.863464 870.978394,422.863464 
	C870.978394,431.780457 870.977417,440.258026 870.978577,448.735565 
	C870.987183,511.060455 871.000549,573.385376 870.999817,635.710266 
	C870.999695,644.160645 867.077515,648.297852 858.684509,648.732117 
	C856.523132,648.843872 854.352783,648.796509 852.186523,648.796692 
	C762.365356,648.805054 672.544189,648.810547 582.723022,648.816345 
	C580.645874,648.816467 578.568787,648.816345 576.466309,648.816345 
	C576.466309,682.021301 576.466309,714.460571 576.466309,747.553772 
	C592.281860,747.553772 607.890686,747.553772 624.499573,747.553894 
M576.461304,489.499512 
	C576.461304,500.249939 576.461304,511.000366 576.461304,521.745361 
	C633.016052,521.745361 689.055908,521.745361 744.886963,521.745361 
	C744.886963,488.522705 744.886963,455.633453 744.886963,422.873291 
	C688.577820,422.873291 632.656067,422.873291 576.463257,422.873291 
	C576.463257,444.943115 576.463257,466.721283 576.461304,489.499512 
z"/>
<path fill="#FEFEFE" opacity="1.000000" stroke="none" 
	d="
M150.225266,734.543030 
	C163.567719,705.374878 176.911057,676.207092 190.250778,647.037781 
	C191.148865,645.073975 192.242661,643.165222 192.863800,641.115234 
	C195.406494,632.723328 190.453842,625.964722 181.685730,625.942017 
	C151.687805,625.864197 121.689690,625.865112 91.691650,625.836243 
	C90.035332,625.834656 88.379013,625.836121 86.267838,625.836121 
	C86.267838,446.004120 86.267838,266.311157 86.267838,86.336975 
	C340.045135,86.336975 593.939575,86.336975 848.106445,86.336975 
	C848.106445,156.212601 848.106445,225.958618 848.106445,296.098419 
	C821.680176,296.098419 795.284180,296.098419 768.135132,296.098419 
	C768.135132,294.407562 768.136169,292.669098 768.135010,290.930603 
	C768.111145,254.266281 768.094666,217.601959 768.058167,180.937637 
	C768.047974,170.662445 764.155396,166.826965 753.824951,166.827408 
	C563.336975,166.835571 372.849060,166.844818 182.361099,166.854721 
	C180.861237,166.854797 179.359863,166.826004 177.861771,166.880844 
	C170.452408,167.152084 166.124435,171.460907 166.045517,178.837570 
	C165.956390,187.169479 166.011200,195.502960 166.011673,203.835770 
	C166.017822,311.995605 166.026291,420.155426 166.031570,528.315247 
	C166.032166,540.688782 170.031693,544.740295 182.515381,544.744202 
	C260.343781,544.768311 338.172180,544.771423 416.000580,544.770264 
	C526.660278,544.768738 637.319946,544.760925 747.979614,544.733276 
	C751.305176,544.732422 754.666260,544.740601 757.948914,544.291504 
	C764.969482,543.331116 768.157227,539.633728 768.182129,532.496521 
	C768.237427,516.664429 768.165466,500.831970 768.153076,484.999664 
	C768.138245,466.000854 768.131531,447.002075 768.121582,428.003265 
	C768.120667,426.371185 768.121460,424.739136 768.121460,422.847229 
	C794.945496,422.847229 821.357056,422.847229 848.064026,422.847229 
	C848.064026,490.394623 848.064026,557.813843 848.064026,625.870605 
	C845.976501,625.870605 843.872375,625.870605 841.768188,625.870605 
	C669.612366,625.872620 497.456482,625.930298 325.300903,625.718811 
	C316.306641,625.707764 309.017517,628.110779 301.700745,633.118347 
	C251.844543,667.239563 201.792374,701.074524 151.252472,734.900635 
	C150.542740,734.713928 150.384018,734.628479 150.225266,734.543030 
z"/>
<path fill="#FEFEFE" opacity="1.000000" stroke="none" 
	d="
M1170.556885,959.804382 
	C1141.335449,940.029419 1112.099731,920.275391 1082.897095,900.472656 
	C1060.439331,885.243591 1037.989746,870.002197 1015.619568,854.645203 
	C1011.584473,851.875122 1007.416077,850.793457 1002.541260,850.795654 
	C827.559570,850.874268 652.577942,850.863281 477.596252,850.864868 
	C476.434937,850.864868 475.273590,850.864868 473.667725,850.864868 
	C473.667725,783.667603 473.667725,716.626953 473.667725,649.180725 
	C499.838959,649.180725 526.215637,649.180725 553.244141,649.180725 
	C553.244141,650.760132 553.243652,652.518982 553.244141,654.277771 
	C553.253357,686.941040 553.259827,719.604248 553.279846,752.267517 
	C553.281067,754.265137 553.244263,756.279785 553.475586,758.257202 
	C554.403137,766.186218 558.757141,770.052551 566.744019,770.054443 
	C627.904297,770.068970 689.064514,770.069214 750.224792,770.070496 
	C880.377869,770.073303 1010.530884,770.074829 1140.683960,770.074219 
	C1151.942871,770.074158 1155.688843,766.413086 1155.692383,755.179077 
	C1155.728638,641.524414 1155.748169,527.869812 1155.751953,414.215149 
	C1155.752319,404.286255 1151.342163,399.881042 1141.419800,399.880432 
	C950.273132,399.868988 759.126404,399.869690 567.979736,399.883575 
	C557.930420,399.884308 553.296631,404.501587 553.283875,414.526337 
	C553.240662,448.522705 553.246643,482.519165 553.233948,516.515564 
	C553.233337,518.166626 553.233826,519.817688 553.233826,521.771240 
	C526.639771,521.771240 500.236969,521.771240 473.525818,521.771240 
	C473.525818,454.297546 473.525818,386.879028 473.525818,319.123016 
	C727.565186,319.123016 981.579224,319.123016 1235.807617,319.123016 
	C1235.807617,496.303711 1235.807617,673.358337 1235.807617,850.848145 
	C1233.772705,850.848145 1231.981812,850.848267 1230.190918,850.848145 
	C1201.193970,850.845154 1172.188477,851.245300 1143.204346,850.634766 
	C1132.096802,850.400818 1125.962646,859.032959 1130.898438,869.489929 
	C1144.728516,898.790466 1157.824097,928.437805 1171.061890,958.571533 
	C1170.795288,959.397888 1170.676147,959.601135 1170.556885,959.804382 
z"/>
<path fill="#FEFEFD" opacity="1.000000" stroke="none" 
	d="
M731.987183,189.274780 
	C736.465027,189.274796 740.445190,189.274796 744.811401,189.274796 
	C744.811401,225.029312 744.811401,260.550842 744.811401,296.480591 
	C741.883423,296.480591 739.091003,296.480133 736.298523,296.480652 
	C646.143494,296.497253 555.988403,296.513824 465.833374,296.532379 
	C464.500397,296.532654 463.163696,296.498749 461.835052,296.581970 
	C454.867706,297.018738 450.778046,301.090149 450.689117,308.071045 
	C450.553253,318.734711 450.620148,329.401184 450.628143,340.066467 
	C450.672363,399.058777 450.724823,458.051086 450.774261,517.043396 
	C450.775482,518.514587 450.774384,519.985779 450.774384,521.764893 
	C363.542206,521.764893 276.628082,521.764893 189.292221,521.764893 
	C189.292221,411.253662 189.292221,300.552582 189.292221,189.274765 
	C369.973663,189.274765 550.731567,189.274765 731.987183,189.274780 
z"/>
<path fill="#FEFEFD" opacity="1.000000" stroke="none" 
	d="
M623.999512,747.553833 
	C607.890686,747.553772 592.281860,747.553772 576.466309,747.553772 
	C576.466309,714.460571 576.466309,682.021301 576.466309,648.816345 
	C578.568787,648.816345 580.645874,648.816467 582.723022,648.816345 
	C672.544189,648.810547 762.365356,648.805054 852.186523,648.796692 
	C854.352783,648.796509 856.523132,648.843872 858.684509,648.732117 
	C867.077515,648.297852 870.999695,644.160645 870.999817,635.710266 
	C871.000549,573.385376 870.987183,511.060455 870.978577,448.735565 
	C870.977417,440.258026 870.978394,431.780457 870.978394,422.863464 
	C958.302368,422.863464 1045.336426,422.863464 1132.551270,422.863464 
	C1132.551270,530.867859 1132.551270,638.950012 1132.551270,747.553894 
	C963.039062,747.553894 793.769287,747.553894 623.999512,747.553833 
z"/>
<path fill="#FEFEFD" opacity="1.000000" stroke="none" 
	d="
M576.462280,488.999481 
	C576.463257,466.721283 576.463257,444.943115 576.463257,422.873291 
	C632.656067,422.873291 688.577820,422.873291 744.886963,422.873291 
	C744.886963,455.633453 744.886963,488.522705 744.886963,521.745361 
	C689.055908,521.745361 633.016052,521.745361 576.461304,521.745361 
	C576.461304,511.000366 576.461304,500.249939 576.462280,488.999481 
z"/>
<path fill="#FEFEFE" opacity="1.000000" stroke="none" 
	d="
M150.914764,734.965576 
	C150.822510,735.351807 150.516998,735.571838 150.211487,735.791870 
	C150.120850,735.541138 150.030228,735.290344 150.082428,734.791321 
	C150.384018,734.628479 150.542740,734.713928 150.914764,734.965576 
z"/>
<path fill="#FEFEFE" opacity="1.000000" stroke="none" 
	d="
M1171.136230,958.919678 
	C1171.264160,959.087280 1171.170288,959.529968 1170.816650,959.888550 
	C1170.676147,959.601135 1170.795288,959.397888 1171.136230,958.919678 
z"/>
</svg>